<?xml version="1.0" encoding="utf-8" standalone="no"?>
<!DOCTYPE svg PUBLIC "-//W3C//DTD SVG 1.1//EN"
  "http://www.w3.org/Graphics/SVG/1.1/DTD/svg11.dtd">
<svg xmlns:xlink="http://www.w3.org/1999/xlink" width="451.974141pt" height="333.605pt" viewBox="0 0 451.974141 333.605" xmlns="http://www.w3.org/2000/svg" version="1.1">
 <metadata>
  <rdf:RDF xmlns:dc="http://purl.org/dc/elements/1.1/" xmlns:cc="http://creativecommons.org/ns#" xmlns:rdf="http://www.w3.org/1999/02/22-rdf-syntax-ns#">
   <cc:Work>
    <dc:type rdf:resource="http://purl.org/dc/dcmitype/StillImage"/>
    <dc:date>2024-04-14T00:50:54.912442</dc:date>
    <dc:format>image/svg+xml</dc:format>
    <dc:creator>
     <cc:Agent>
      <dc:title>Matplotlib v3.8.4, https://matplotlib.org/</dc:title>
     </cc:Agent>
    </dc:creator>
   </cc:Work>
  </rdf:RDF>
 </metadata>
 <defs>
  <style type="text/css">*{stroke-linejoin: round; stroke-linecap: butt}</style>
 </defs>
 <g id="figure_1">
  <g id="patch_1">
   <path d="M 0 333.605 
L 451.974141 333.605 
L 451.974141 0 
L 0 0 
z
" style="fill: #ffffff"/>
  </g>
  <g id="axes_1">
   <g id="patch_2">
    <path d="M 43.865 284.4 
L 434.465 284.4 
L 434.465 7.2 
L 43.865 7.2 
z
" style="fill: #ffffff"/>
   </g>
   <g id="matplotlib.axis_1">
    <g id="xtick_1">
     <g id="line2d_1">
      <path d="M 60.97317 284.4 
L 60.97317 7.2 
" clip-path="url(#p0f662d8a02)" style="fill: none; stroke: #b0b0b0; stroke-width: 0.8; stroke-linecap: square"/>
     </g>
     <g id="line2d_2">
      <defs>
       <path id="m1bafe2277d" d="M 0 0 
L 0 3.5 
" style="stroke: #000000; stroke-width: 0.8"/>
      </defs>
      <g>
       <use xlink:href="#m1bafe2277d" x="60.97317" y="284.4" style="stroke: #000000; stroke-width: 0.8"/>
      </g>
     </g>
     <g id="text_1">
      <!-- 0.0 -->
      <g transform="translate(48.25067 303.5575) scale(0.16 -0.16)">
       <defs>
        <path id="DejaVuSans-30" d="M 2034 4250 
Q 1547 4250 1301 3770 
Q 1056 3291 1056 2328 
Q 1056 1369 1301 889 
Q 1547 409 2034 409 
Q 2525 409 2770 889 
Q 3016 1369 3016 2328 
Q 3016 3291 2770 3770 
Q 2525 4250 2034 4250 
z
M 2034 4750 
Q 2819 4750 3233 4129 
Q 3647 3509 3647 2328 
Q 3647 1150 3233 529 
Q 2819 -91 2034 -91 
Q 1250 -91 836 529 
Q 422 1150 422 2328 
Q 422 3509 836 4129 
Q 1250 4750 2034 4750 
z
" transform="scale(0.015625)"/>
        <path id="DejaVuSans-2e" d="M 684 794 
L 1344 794 
L 1344 0 
L 684 0 
L 684 794 
z
" transform="scale(0.015625)"/>
       </defs>
       <use xlink:href="#DejaVuSans-30"/>
       <use xlink:href="#DejaVuSans-2e" x="63.623047"/>
       <use xlink:href="#DejaVuSans-30" x="95.410156"/>
      </g>
     </g>
    </g>
    <g id="xtick_2">
     <g id="line2d_3">
      <path d="M 135.188864 284.4 
L 135.188864 7.2 
" clip-path="url(#p0f662d8a02)" style="fill: none; stroke: #b0b0b0; stroke-width: 0.8; stroke-linecap: square"/>
     </g>
     <g id="line2d_4">
      <g>
       <use xlink:href="#m1bafe2277d" x="135.188864" y="284.4" style="stroke: #000000; stroke-width: 0.8"/>
      </g>
     </g>
     <g id="text_2">
      <!-- 0.5 -->
      <g transform="translate(122.466364 303.5575) scale(0.16 -0.16)">
       <defs>
        <path id="DejaVuSans-35" d="M 691 4666 
L 3169 4666 
L 3169 4134 
L 1269 4134 
L 1269 2991 
Q 1406 3038 1543 3061 
Q 1681 3084 1819 3084 
Q 2600 3084 3056 2656 
Q 3513 2228 3513 1497 
Q 3513 744 3044 326 
Q 2575 -91 1722 -91 
Q 1428 -91 1123 -41 
Q 819 9 494 109 
L 494 744 
Q 775 591 1075 516 
Q 1375 441 1709 441 
Q 2250 441 2565 725 
Q 2881 1009 2881 1497 
Q 2881 1984 2565 2268 
Q 2250 2553 1709 2553 
Q 1456 2553 1204 2497 
Q 953 2441 691 2322 
L 691 4666 
z
" transform="scale(0.015625)"/>
       </defs>
       <use xlink:href="#DejaVuSans-30"/>
       <use xlink:href="#DejaVuSans-2e" x="63.623047"/>
       <use xlink:href="#DejaVuSans-35" x="95.410156"/>
      </g>
     </g>
    </g>
    <g id="xtick_3">
     <g id="line2d_5">
      <path d="M 209.404559 284.4 
L 209.404559 7.2 
" clip-path="url(#p0f662d8a02)" style="fill: none; stroke: #b0b0b0; stroke-width: 0.8; stroke-linecap: square"/>
     </g>
     <g id="line2d_6">
      <g>
       <use xlink:href="#m1bafe2277d" x="209.404559" y="284.4" style="stroke: #000000; stroke-width: 0.8"/>
      </g>
     </g>
     <g id="text_3">
      <!-- 1.0 -->
      <g transform="translate(196.682059 303.5575) scale(0.16 -0.16)">
       <defs>
        <path id="DejaVuSans-31" d="M 794 531 
L 1825 531 
L 1825 4091 
L 703 3866 
L 703 4441 
L 1819 4666 
L 2450 4666 
L 2450 531 
L 3481 531 
L 3481 0 
L 794 0 
L 794 531 
z
" transform="scale(0.015625)"/>
       </defs>
       <use xlink:href="#DejaVuSans-31"/>
       <use xlink:href="#DejaVuSans-2e" x="63.623047"/>
       <use xlink:href="#DejaVuSans-30" x="95.410156"/>
      </g>
     </g>
    </g>
    <g id="xtick_4">
     <g id="line2d_7">
      <path d="M 283.620253 284.4 
L 283.620253 7.2 
" clip-path="url(#p0f662d8a02)" style="fill: none; stroke: #b0b0b0; stroke-width: 0.8; stroke-linecap: square"/>
     </g>
     <g id="line2d_8">
      <g>
       <use xlink:href="#m1bafe2277d" x="283.620253" y="284.4" style="stroke: #000000; stroke-width: 0.8"/>
      </g>
     </g>
     <g id="text_4">
      <!-- 1.5 -->
      <g transform="translate(270.897753 303.5575) scale(0.16 -0.16)">
       <use xlink:href="#DejaVuSans-31"/>
       <use xlink:href="#DejaVuSans-2e" x="63.623047"/>
       <use xlink:href="#DejaVuSans-35" x="95.410156"/>
      </g>
     </g>
    </g>
    <g id="xtick_5">
     <g id="line2d_9">
      <path d="M 357.835947 284.4 
L 357.835947 7.2 
" clip-path="url(#p0f662d8a02)" style="fill: none; stroke: #b0b0b0; stroke-width: 0.8; stroke-linecap: square"/>
     </g>
     <g id="line2d_10">
      <g>
       <use xlink:href="#m1bafe2277d" x="357.835947" y="284.4" style="stroke: #000000; stroke-width: 0.8"/>
      </g>
     </g>
     <g id="text_5">
      <!-- 2.0 -->
      <g transform="translate(345.113447 303.5575) scale(0.16 -0.16)">
       <defs>
        <path id="DejaVuSans-32" d="M 1228 531 
L 3431 531 
L 3431 0 
L 469 0 
L 469 531 
Q 828 903 1448 1529 
Q 2069 2156 2228 2338 
Q 2531 2678 2651 2914 
Q 2772 3150 2772 3378 
Q 2772 3750 2511 3984 
Q 2250 4219 1831 4219 
Q 1534 4219 1204 4116 
Q 875 4013 500 3803 
L 500 4441 
Q 881 4594 1212 4672 
Q 1544 4750 1819 4750 
Q 2544 4750 2975 4387 
Q 3406 4025 3406 3419 
Q 3406 3131 3298 2873 
Q 3191 2616 2906 2266 
Q 2828 2175 2409 1742 
Q 1991 1309 1228 531 
z
" transform="scale(0.015625)"/>
       </defs>
       <use xlink:href="#DejaVuSans-32"/>
       <use xlink:href="#DejaVuSans-2e" x="63.623047"/>
       <use xlink:href="#DejaVuSans-30" x="95.410156"/>
      </g>
     </g>
    </g>
    <g id="xtick_6">
     <g id="line2d_11">
      <path d="M 432.051641 284.4 
L 432.051641 7.2 
" clip-path="url(#p0f662d8a02)" style="fill: none; stroke: #b0b0b0; stroke-width: 0.8; stroke-linecap: square"/>
     </g>
     <g id="line2d_12">
      <g>
       <use xlink:href="#m1bafe2277d" x="432.051641" y="284.4" style="stroke: #000000; stroke-width: 0.8"/>
      </g>
     </g>
     <g id="text_6">
      <!-- 2.5 -->
      <g transform="translate(419.329141 303.5575) scale(0.16 -0.16)">
       <use xlink:href="#DejaVuSans-32"/>
       <use xlink:href="#DejaVuSans-2e" x="63.623047"/>
       <use xlink:href="#DejaVuSans-35" x="95.410156"/>
      </g>
     </g>
    </g>
    <g id="text_7">
     <!-- Eigenvalues $\lambda_i$ -->
     <g transform="translate(181.725 323.045) scale(0.16 -0.16)">
      <defs>
       <path id="DejaVuSans-45" d="M 628 4666 
L 3578 4666 
L 3578 4134 
L 1259 4134 
L 1259 2753 
L 3481 2753 
L 3481 2222 
L 1259 2222 
L 1259 531 
L 3634 531 
L 3634 0 
L 628 0 
L 628 4666 
z
" transform="scale(0.015625)"/>
       <path id="DejaVuSans-69" d="M 603 3500 
L 1178 3500 
L 1178 0 
L 603 0 
L 603 3500 
z
M 603 4863 
L 1178 4863 
L 1178 4134 
L 603 4134 
L 603 4863 
z
" transform="scale(0.015625)"/>
       <path id="DejaVuSans-67" d="M 2906 1791 
Q 2906 2416 2648 2759 
Q 2391 3103 1925 3103 
Q 1463 3103 1205 2759 
Q 947 2416 947 1791 
Q 947 1169 1205 825 
Q 1463 481 1925 481 
Q 2391 481 2648 825 
Q 2906 1169 2906 1791 
z
M 3481 434 
Q 3481 -459 3084 -895 
Q 2688 -1331 1869 -1331 
Q 1566 -1331 1297 -1286 
Q 1028 -1241 775 -1147 
L 775 -588 
Q 1028 -725 1275 -790 
Q 1522 -856 1778 -856 
Q 2344 -856 2625 -561 
Q 2906 -266 2906 331 
L 2906 616 
Q 2728 306 2450 153 
Q 2172 0 1784 0 
Q 1141 0 747 490 
Q 353 981 353 1791 
Q 353 2603 747 3093 
Q 1141 3584 1784 3584 
Q 2172 3584 2450 3431 
Q 2728 3278 2906 2969 
L 2906 3500 
L 3481 3500 
L 3481 434 
z
" transform="scale(0.015625)"/>
       <path id="DejaVuSans-65" d="M 3597 1894 
L 3597 1613 
L 953 1613 
Q 991 1019 1311 708 
Q 1631 397 2203 397 
Q 2534 397 2845 478 
Q 3156 559 3463 722 
L 3463 178 
Q 3153 47 2828 -22 
Q 2503 -91 2169 -91 
Q 1331 -91 842 396 
Q 353 884 353 1716 
Q 353 2575 817 3079 
Q 1281 3584 2069 3584 
Q 2775 3584 3186 3129 
Q 3597 2675 3597 1894 
z
M 3022 2063 
Q 3016 2534 2758 2815 
Q 2500 3097 2075 3097 
Q 1594 3097 1305 2825 
Q 1016 2553 972 2059 
L 3022 2063 
z
" transform="scale(0.015625)"/>
       <path id="DejaVuSans-6e" d="M 3513 2113 
L 3513 0 
L 2938 0 
L 2938 2094 
Q 2938 2591 2744 2837 
Q 2550 3084 2163 3084 
Q 1697 3084 1428 2787 
Q 1159 2491 1159 1978 
L 1159 0 
L 581 0 
L 581 3500 
L 1159 3500 
L 1159 2956 
Q 1366 3272 1645 3428 
Q 1925 3584 2291 3584 
Q 2894 3584 3203 3211 
Q 3513 2838 3513 2113 
z
" transform="scale(0.015625)"/>
       <path id="DejaVuSans-76" d="M 191 3500 
L 800 3500 
L 1894 563 
L 2988 3500 
L 3597 3500 
L 2284 0 
L 1503 0 
L 191 3500 
z
" transform="scale(0.015625)"/>
       <path id="DejaVuSans-61" d="M 2194 1759 
Q 1497 1759 1228 1600 
Q 959 1441 959 1056 
Q 959 750 1161 570 
Q 1363 391 1709 391 
Q 2188 391 2477 730 
Q 2766 1069 2766 1631 
L 2766 1759 
L 2194 1759 
z
M 3341 1997 
L 3341 0 
L 2766 0 
L 2766 531 
Q 2569 213 2275 61 
Q 1981 -91 1556 -91 
Q 1019 -91 701 211 
Q 384 513 384 1019 
Q 384 1609 779 1909 
Q 1175 2209 1959 2209 
L 2766 2209 
L 2766 2266 
Q 2766 2663 2505 2880 
Q 2244 3097 1772 3097 
Q 1472 3097 1187 3025 
Q 903 2953 641 2809 
L 641 3341 
Q 956 3463 1253 3523 
Q 1550 3584 1831 3584 
Q 2591 3584 2966 3190 
Q 3341 2797 3341 1997 
z
" transform="scale(0.015625)"/>
       <path id="DejaVuSans-6c" d="M 603 4863 
L 1178 4863 
L 1178 0 
L 603 0 
L 603 4863 
z
" transform="scale(0.015625)"/>
       <path id="DejaVuSans-75" d="M 544 1381 
L 544 3500 
L 1119 3500 
L 1119 1403 
Q 1119 906 1312 657 
Q 1506 409 1894 409 
Q 2359 409 2629 706 
Q 2900 1003 2900 1516 
L 2900 3500 
L 3475 3500 
L 3475 0 
L 2900 0 
L 2900 538 
Q 2691 219 2414 64 
Q 2138 -91 1772 -91 
Q 1169 -91 856 284 
Q 544 659 544 1381 
z
M 1991 3584 
L 1991 3584 
z
" transform="scale(0.015625)"/>
       <path id="DejaVuSans-73" d="M 2834 3397 
L 2834 2853 
Q 2591 2978 2328 3040 
Q 2066 3103 1784 3103 
Q 1356 3103 1142 2972 
Q 928 2841 928 2578 
Q 928 2378 1081 2264 
Q 1234 2150 1697 2047 
L 1894 2003 
Q 2506 1872 2764 1633 
Q 3022 1394 3022 966 
Q 3022 478 2636 193 
Q 2250 -91 1575 -91 
Q 1294 -91 989 -36 
Q 684 19 347 128 
L 347 722 
Q 666 556 975 473 
Q 1284 391 1588 391 
Q 1994 391 2212 530 
Q 2431 669 2431 922 
Q 2431 1156 2273 1281 
Q 2116 1406 1581 1522 
L 1381 1569 
Q 847 1681 609 1914 
Q 372 2147 372 2553 
Q 372 3047 722 3315 
Q 1072 3584 1716 3584 
Q 2034 3584 2315 3537 
Q 2597 3491 2834 3397 
z
" transform="scale(0.015625)"/>
       <path id="DejaVuSans-20" transform="scale(0.015625)"/>
       <path id="DejaVuSans-Oblique-3bb" d="M 2350 4316 
L 3125 0 
L 2516 0 
L 2038 2588 
L 328 0 
L -281 0 
L 1903 3356 
L 1794 3975 
Q 1725 4369 1391 4369 
L 1091 4369 
L 1184 4863 
L 1550 4856 
Q 2253 4847 2350 4316 
z
" transform="scale(0.015625)"/>
       <path id="DejaVuSans-Oblique-69" d="M 1172 4863 
L 1747 4863 
L 1606 4134 
L 1031 4134 
L 1172 4863 
z
M 909 3500 
L 1484 3500 
L 800 0 
L 225 0 
L 909 3500 
z
" transform="scale(0.015625)"/>
      </defs>
      <use xlink:href="#DejaVuSans-45" transform="translate(0 0.015625)"/>
      <use xlink:href="#DejaVuSans-69" transform="translate(63.183594 0.015625)"/>
      <use xlink:href="#DejaVuSans-67" transform="translate(90.966797 0.015625)"/>
      <use xlink:href="#DejaVuSans-65" transform="translate(154.443359 0.015625)"/>
      <use xlink:href="#DejaVuSans-6e" transform="translate(215.966797 0.015625)"/>
      <use xlink:href="#DejaVuSans-76" transform="translate(279.345703 0.015625)"/>
      <use xlink:href="#DejaVuSans-61" transform="translate(338.525391 0.015625)"/>
      <use xlink:href="#DejaVuSans-6c" transform="translate(399.804688 0.015625)"/>
      <use xlink:href="#DejaVuSans-75" transform="translate(427.587891 0.015625)"/>
      <use xlink:href="#DejaVuSans-65" transform="translate(490.966797 0.015625)"/>
      <use xlink:href="#DejaVuSans-73" transform="translate(552.490234 0.015625)"/>
      <use xlink:href="#DejaVuSans-20" transform="translate(604.589844 0.015625)"/>
      <use xlink:href="#DejaVuSans-Oblique-3bb" transform="translate(636.376953 0.015625)"/>
      <use xlink:href="#DejaVuSans-Oblique-69" transform="translate(695.556641 -16.390625) scale(0.7)"/>
     </g>
    </g>
   </g>
   <g id="matplotlib.axis_2">
    <g id="ytick_1">
     <g id="line2d_13">
      <path d="M 43.865 271.8 
L 434.465 271.8 
" clip-path="url(#p0f662d8a02)" style="fill: none; stroke: #b0b0b0; stroke-width: 0.8; stroke-linecap: square"/>
     </g>
     <g id="line2d_14">
      <defs>
       <path id="ma0124e8141" d="M 0 0 
L -3.5 0 
" style="stroke: #000000; stroke-width: 0.8"/>
      </defs>
      <g>
       <use xlink:href="#ma0124e8141" x="43.865" y="271.8" style="stroke: #000000; stroke-width: 0.8"/>
      </g>
     </g>
     <g id="text_8">
      <!-- 0 -->
      <g transform="translate(26.685 277.87875) scale(0.16 -0.16)">
       <use xlink:href="#DejaVuSans-30"/>
      </g>
     </g>
    </g>
    <g id="ytick_2">
     <g id="line2d_15">
      <path d="M 43.865 215.054142 
L 434.465 215.054142 
" clip-path="url(#p0f662d8a02)" style="fill: none; stroke: #b0b0b0; stroke-width: 0.8; stroke-linecap: square"/>
     </g>
     <g id="line2d_16">
      <g>
       <use xlink:href="#ma0124e8141" x="43.865" y="215.054142" style="stroke: #000000; stroke-width: 0.8"/>
      </g>
     </g>
     <g id="text_9">
      <!-- 1 -->
      <g transform="translate(26.685 221.132892) scale(0.16 -0.16)">
       <use xlink:href="#DejaVuSans-31"/>
      </g>
     </g>
    </g>
    <g id="ytick_3">
     <g id="line2d_17">
      <path d="M 43.865 158.308284 
L 434.465 158.308284 
" clip-path="url(#p0f662d8a02)" style="fill: none; stroke: #b0b0b0; stroke-width: 0.8; stroke-linecap: square"/>
     </g>
     <g id="line2d_18">
      <g>
       <use xlink:href="#ma0124e8141" x="43.865" y="158.308284" style="stroke: #000000; stroke-width: 0.8"/>
      </g>
     </g>
     <g id="text_10">
      <!-- 2 -->
      <g transform="translate(26.685 164.387034) scale(0.16 -0.16)">
       <use xlink:href="#DejaVuSans-32"/>
      </g>
     </g>
    </g>
    <g id="ytick_4">
     <g id="line2d_19">
      <path d="M 43.865 101.562426 
L 434.465 101.562426 
" clip-path="url(#p0f662d8a02)" style="fill: none; stroke: #b0b0b0; stroke-width: 0.8; stroke-linecap: square"/>
     </g>
     <g id="line2d_20">
      <g>
       <use xlink:href="#ma0124e8141" x="43.865" y="101.562426" style="stroke: #000000; stroke-width: 0.8"/>
      </g>
     </g>
     <g id="text_11">
      <!-- 3 -->
      <g transform="translate(26.685 107.641176) scale(0.16 -0.16)">
       <defs>
        <path id="DejaVuSans-33" d="M 2597 2516 
Q 3050 2419 3304 2112 
Q 3559 1806 3559 1356 
Q 3559 666 3084 287 
Q 2609 -91 1734 -91 
Q 1441 -91 1130 -33 
Q 819 25 488 141 
L 488 750 
Q 750 597 1062 519 
Q 1375 441 1716 441 
Q 2309 441 2620 675 
Q 2931 909 2931 1356 
Q 2931 1769 2642 2001 
Q 2353 2234 1838 2234 
L 1294 2234 
L 1294 2753 
L 1863 2753 
Q 2328 2753 2575 2939 
Q 2822 3125 2822 3475 
Q 2822 3834 2567 4026 
Q 2313 4219 1838 4219 
Q 1578 4219 1281 4162 
Q 984 4106 628 3988 
L 628 4550 
Q 988 4650 1302 4700 
Q 1616 4750 1894 4750 
Q 2613 4750 3031 4423 
Q 3450 4097 3450 3541 
Q 3450 3153 3228 2886 
Q 3006 2619 2597 2516 
z
" transform="scale(0.015625)"/>
       </defs>
       <use xlink:href="#DejaVuSans-33"/>
      </g>
     </g>
    </g>
    <g id="ytick_5">
     <g id="line2d_21">
      <path d="M 43.865 44.816568 
L 434.465 44.816568 
" clip-path="url(#p0f662d8a02)" style="fill: none; stroke: #b0b0b0; stroke-width: 0.8; stroke-linecap: square"/>
     </g>
     <g id="line2d_22">
      <g>
       <use xlink:href="#ma0124e8141" x="43.865" y="44.816568" style="stroke: #000000; stroke-width: 0.8"/>
      </g>
     </g>
     <g id="text_12">
      <!-- 4 -->
      <g transform="translate(26.685 50.895318) scale(0.16 -0.16)">
       <defs>
        <path id="DejaVuSans-34" d="M 2419 4116 
L 825 1625 
L 2419 1625 
L 2419 4116 
z
M 2253 4666 
L 3047 4666 
L 3047 1625 
L 3713 1625 
L 3713 1100 
L 3047 1100 
L 3047 0 
L 2419 0 
L 2419 1100 
L 313 1100 
L 313 1709 
L 2253 4666 
z
" transform="scale(0.015625)"/>
       </defs>
       <use xlink:href="#DejaVuSans-34"/>
      </g>
     </g>
    </g>
    <g id="text_13">
     <!-- $\ell(\lambda_i)$ -->
     <g transform="translate(19.3575 161.88) rotate(-90) scale(0.16 -0.16)">
      <defs>
       <path id="DejaVuSans-Oblique-2113" d="M 950 838 
Q 1078 213 1350 213 
Q 1531 213 1766 572 
L 2181 572 
Q 1994 253 1775 88 
Q 1538 -91 1319 -91 
Q 831 -91 634 344 
L 400 0 
L -88 0 
Q 250 459 500 888 
Q 469 1131 469 1397 
Q 469 1872 566 2347 
Q 931 4131 1256 4497 
Q 1481 4750 1866 4750 
Q 2256 4750 2256 4209 
Q 2253 3966 2197 3675 
Q 1972 2484 950 838 
z
M 947 1656 
Q 1531 2744 1709 3613 
Q 1803 4072 1803 4191 
Q 1803 4406 1725 4406 
Q 1384 4134 1081 2516 
Q 997 2063 947 1656 
z
" transform="scale(0.015625)"/>
       <path id="DejaVuSans-28" d="M 1984 4856 
Q 1566 4138 1362 3434 
Q 1159 2731 1159 2009 
Q 1159 1288 1364 580 
Q 1569 -128 1984 -844 
L 1484 -844 
Q 1016 -109 783 600 
Q 550 1309 550 2009 
Q 550 2706 781 3412 
Q 1013 4119 1484 4856 
L 1984 4856 
z
" transform="scale(0.015625)"/>
       <path id="DejaVuSans-29" d="M 513 4856 
L 1013 4856 
Q 1481 4119 1714 3412 
Q 1947 2706 1947 2009 
Q 1947 1309 1714 600 
Q 1481 -109 1013 -844 
L 513 -844 
Q 928 -128 1133 580 
Q 1338 1288 1338 2009 
Q 1338 2731 1133 3434 
Q 928 4138 513 4856 
z
" transform="scale(0.015625)"/>
      </defs>
      <use xlink:href="#DejaVuSans-Oblique-2113" transform="translate(0 0.015625)"/>
      <use xlink:href="#DejaVuSans-28" transform="translate(41.308594 0.015625)"/>
      <use xlink:href="#DejaVuSans-Oblique-3bb" transform="translate(80.322266 0.015625)"/>
      <use xlink:href="#DejaVuSans-Oblique-69" transform="translate(139.501953 -16.390625) scale(0.7)"/>
      <use xlink:href="#DejaVuSans-29" transform="translate(161.68457 0.015625)"/>
     </g>
    </g>
   </g>
   <g id="line2d_23">
    <defs>
     <path id="m14496fc6bc" d="M -3 3 
L 3 -3 
M -3 -3 
L 3 3 
" style="stroke: #0000ff"/>
    </defs>
    <g clip-path="url(#p0f662d8a02)">
     <use xlink:href="#m14496fc6bc" x="61.619545" y="19.8" style="fill: #0000ff; stroke: #0000ff"/>
     <use xlink:href="#m14496fc6bc" x="61.787732" y="32.859354" style="fill: #0000ff; stroke: #0000ff"/>
     <use xlink:href="#m14496fc6bc" x="83.043833" y="211.957732" style="fill: #0000ff; stroke: #0000ff"/>
     <use xlink:href="#m14496fc6bc" x="91.705128" y="227.432421" style="fill: #0000ff; stroke: #0000ff"/>
     <use xlink:href="#m14496fc6bc" x="94.485361" y="231.284072" style="fill: #0000ff; stroke: #0000ff"/>
     <use xlink:href="#m14496fc6bc" x="95.828656" y="233.000708" style="fill: #0000ff; stroke: #0000ff"/>
     <use xlink:href="#m14496fc6bc" x="97.816463" y="235.388061" style="fill: #0000ff; stroke: #0000ff"/>
     <use xlink:href="#m14496fc6bc" x="99.339285" y="237.104148" style="fill: #0000ff; stroke: #0000ff"/>
     <use xlink:href="#m14496fc6bc" x="102.367823" y="240.257711" style="fill: #0000ff; stroke: #0000ff"/>
     <use xlink:href="#m14496fc6bc" x="104.395495" y="242.196225" style="fill: #0000ff; stroke: #0000ff"/>
     <use xlink:href="#m14496fc6bc" x="105.673675" y="243.353831" style="fill: #0000ff; stroke: #0000ff"/>
     <use xlink:href="#m14496fc6bc" x="106.816797" y="244.349723" style="fill: #0000ff; stroke: #0000ff"/>
     <use xlink:href="#m14496fc6bc" x="108.076409" y="245.406298" style="fill: #0000ff; stroke: #0000ff"/>
     <use xlink:href="#m14496fc6bc" x="110.687277" y="247.469421" style="fill: #0000ff; stroke: #0000ff"/>
     <use xlink:href="#m14496fc6bc" x="111.626151" y="248.172164" style="fill: #0000ff; stroke: #0000ff"/>
     <use xlink:href="#m14496fc6bc" x="115.005193" y="250.544924" style="fill: #0000ff; stroke: #0000ff"/>
     <use xlink:href="#m14496fc6bc" x="117.886461" y="252.391466" style="fill: #0000ff; stroke: #0000ff"/>
     <use xlink:href="#m14496fc6bc" x="118.848474" y="252.974851" style="fill: #0000ff; stroke: #0000ff"/>
     <use xlink:href="#m14496fc6bc" x="119.590736" y="253.414231" style="fill: #0000ff; stroke: #0000ff"/>
     <use xlink:href="#m14496fc6bc" x="122.178439" y="254.8763" style="fill: #0000ff; stroke: #0000ff"/>
     <use xlink:href="#m14496fc6bc" x="124.179395" y="255.936813" style="fill: #0000ff; stroke: #0000ff"/>
     <use xlink:href="#m14496fc6bc" x="125.570143" y="256.640186" style="fill: #0000ff; stroke: #0000ff"/>
     <use xlink:href="#m14496fc6bc" x="127.528696" y="257.586367" style="fill: #0000ff; stroke: #0000ff"/>
     <use xlink:href="#m14496fc6bc" x="130.665668" y="259.000584" style="fill: #0000ff; stroke: #0000ff"/>
     <use xlink:href="#m14496fc6bc" x="132.325874" y="259.701824" style="fill: #0000ff; stroke: #0000ff"/>
     <use xlink:href="#m14496fc6bc" x="134.242326" y="260.473177" style="fill: #0000ff; stroke: #0000ff"/>
     <use xlink:href="#m14496fc6bc" x="135.247446" y="260.862076" style="fill: #0000ff; stroke: #0000ff"/>
     <use xlink:href="#m14496fc6bc" x="136.234618" y="261.233912" style="fill: #0000ff; stroke: #0000ff"/>
     <use xlink:href="#m14496fc6bc" x="139.549249" y="262.412423" style="fill: #0000ff; stroke: #0000ff"/>
     <use xlink:href="#m14496fc6bc" x="140.344683" y="262.679881" style="fill: #0000ff; stroke: #0000ff"/>
     <use xlink:href="#m14496fc6bc" x="143.469266" y="263.676382" style="fill: #0000ff; stroke: #0000ff"/>
     <use xlink:href="#m14496fc6bc" x="144.706326" y="264.048058" style="fill: #0000ff; stroke: #0000ff"/>
     <use xlink:href="#m14496fc6bc" x="145.740041" y="264.349123" style="fill: #0000ff; stroke: #0000ff"/>
     <use xlink:href="#m14496fc6bc" x="150.19013" y="265.551317" style="fill: #0000ff; stroke: #0000ff"/>
     <use xlink:href="#m14496fc6bc" x="153.839525" y="266.431096" style="fill: #0000ff; stroke: #0000ff"/>
     <use xlink:href="#m14496fc6bc" x="154.613664" y="266.606216" style="fill: #0000ff; stroke: #0000ff"/>
     <use xlink:href="#m14496fc6bc" x="158.178565" y="267.363554" style="fill: #0000ff; stroke: #0000ff"/>
     <use xlink:href="#m14496fc6bc" x="159.460854" y="267.617001" style="fill: #0000ff; stroke: #0000ff"/>
     <use xlink:href="#m14496fc6bc" x="160.439172" y="267.803885" style="fill: #0000ff; stroke: #0000ff"/>
     <use xlink:href="#m14496fc6bc" x="166.054082" y="268.773469" style="fill: #0000ff; stroke: #0000ff"/>
     <use xlink:href="#m14496fc6bc" x="168.054385" y="269.078798" style="fill: #0000ff; stroke: #0000ff"/>
     <use xlink:href="#m14496fc6bc" x="168.570468" y="269.15433" style="fill: #0000ff; stroke: #0000ff"/>
     <use xlink:href="#m14496fc6bc" x="170.822587" y="269.468825" style="fill: #0000ff; stroke: #0000ff"/>
     <use xlink:href="#m14496fc6bc" x="173.593794" y="269.823169" style="fill: #0000ff; stroke: #0000ff"/>
     <use xlink:href="#m14496fc6bc" x="176.864644" y="270.197307" style="fill: #0000ff; stroke: #0000ff"/>
     <use xlink:href="#m14496fc6bc" x="178.34059" y="270.351176" style="fill: #0000ff; stroke: #0000ff"/>
     <use xlink:href="#m14496fc6bc" x="181.508847" y="270.651447" style="fill: #0000ff; stroke: #0000ff"/>
     <use xlink:href="#m14496fc6bc" x="185.072972" y="270.942461" style="fill: #0000ff; stroke: #0000ff"/>
     <use xlink:href="#m14496fc6bc" x="186.522034" y="271.047239" style="fill: #0000ff; stroke: #0000ff"/>
     <use xlink:href="#m14496fc6bc" x="189.454095" y="271.236303" style="fill: #0000ff; stroke: #0000ff"/>
     <use xlink:href="#m14496fc6bc" x="189.607395" y="271.245363" style="fill: #0000ff; stroke: #0000ff"/>
     <use xlink:href="#m14496fc6bc" x="192.929043" y="271.422201" style="fill: #0000ff; stroke: #0000ff"/>
     <use xlink:href="#m14496fc6bc" x="196.289744" y="271.56452" style="fill: #0000ff; stroke: #0000ff"/>
     <use xlink:href="#m14496fc6bc" x="199.511101" y="271.668051" style="fill: #0000ff; stroke: #0000ff"/>
     <use xlink:href="#m14496fc6bc" x="201.793312" y="271.722743" style="fill: #0000ff; stroke: #0000ff"/>
     <use xlink:href="#m14496fc6bc" x="203.004379" y="271.745681" style="fill: #0000ff; stroke: #0000ff"/>
     <use xlink:href="#m14496fc6bc" x="206.659669" y="271.790176" style="fill: #0000ff; stroke: #0000ff"/>
     <use xlink:href="#m14496fc6bc" x="209.364105" y="271.799998" style="fill: #0000ff; stroke: #0000ff"/>
     <use xlink:href="#m14496fc6bc" x="211.764502" y="271.792903" style="fill: #0000ff; stroke: #0000ff"/>
     <use xlink:href="#m14496fc6bc" x="213.977036" y="271.773615" style="fill: #0000ff; stroke: #0000ff"/>
     <use xlink:href="#m14496fc6bc" x="214.821691" y="271.763104" style="fill: #0000ff; stroke: #0000ff"/>
     <use xlink:href="#m14496fc6bc" x="217.459089" y="271.719357" style="fill: #0000ff; stroke: #0000ff"/>
     <use xlink:href="#m14496fc6bc" x="222.218067" y="271.599991" style="fill: #0000ff; stroke: #0000ff"/>
     <use xlink:href="#m14496fc6bc" x="227.980548" y="271.389529" style="fill: #0000ff; stroke: #0000ff"/>
     <use xlink:href="#m14496fc6bc" x="231.697171" y="271.21764" style="fill: #0000ff; stroke: #0000ff"/>
     <use xlink:href="#m14496fc6bc" x="234.931173" y="271.046145" style="fill: #0000ff; stroke: #0000ff"/>
     <use xlink:href="#m14496fc6bc" x="237.970978" y="270.86705" style="fill: #0000ff; stroke: #0000ff"/>
     <use xlink:href="#m14496fc6bc" x="240.907691" y="270.678124" style="fill: #0000ff; stroke: #0000ff"/>
     <use xlink:href="#m14496fc6bc" x="243.776361" y="270.478976" style="fill: #0000ff; stroke: #0000ff"/>
     <use xlink:href="#m14496fc6bc" x="245.766978" y="270.332545" style="fill: #0000ff; stroke: #0000ff"/>
     <use xlink:href="#m14496fc6bc" x="256.100392" y="269.469648" style="fill: #0000ff; stroke: #0000ff"/>
     <use xlink:href="#m14496fc6bc" x="257.010587" y="269.38576" style="fill: #0000ff; stroke: #0000ff"/>
     <use xlink:href="#m14496fc6bc" x="259.739175" y="269.126994" style="fill: #0000ff; stroke: #0000ff"/>
     <use xlink:href="#m14496fc6bc" x="261.120999" y="268.991851" style="fill: #0000ff; stroke: #0000ff"/>
     <use xlink:href="#m14496fc6bc" x="265.815252" y="268.512766" style="fill: #0000ff; stroke: #0000ff"/>
     <use xlink:href="#m14496fc6bc" x="269.456414" y="268.12056" style="fill: #0000ff; stroke: #0000ff"/>
     <use xlink:href="#m14496fc6bc" x="275.939239" y="267.379797" style="fill: #0000ff; stroke: #0000ff"/>
     <use xlink:href="#m14496fc6bc" x="278.862077" y="267.028746" style="fill: #0000ff; stroke: #0000ff"/>
     <use xlink:href="#m14496fc6bc" x="283.400697" y="266.463488" style="fill: #0000ff; stroke: #0000ff"/>
     <use xlink:href="#m14496fc6bc" x="284.402959" y="266.335443" style="fill: #0000ff; stroke: #0000ff"/>
     <use xlink:href="#m14496fc6bc" x="286.526305" y="266.060413" style="fill: #0000ff; stroke: #0000ff"/>
     <use xlink:href="#m14496fc6bc" x="291.490149" y="265.398004" style="fill: #0000ff; stroke: #0000ff"/>
     <use xlink:href="#m14496fc6bc" x="299.888484" y="264.21792" style="fill: #0000ff; stroke: #0000ff"/>
     <use xlink:href="#m14496fc6bc" x="303.384575" y="263.705707" style="fill: #0000ff; stroke: #0000ff"/>
     <use xlink:href="#m14496fc6bc" x="311.238496" y="262.512487" style="fill: #0000ff; stroke: #0000ff"/>
     <use xlink:href="#m14496fc6bc" x="319.0758" y="261.266052" style="fill: #0000ff; stroke: #0000ff"/>
     <use xlink:href="#m14496fc6bc" x="321.858504" y="260.810738" style="fill: #0000ff; stroke: #0000ff"/>
     <use xlink:href="#m14496fc6bc" x="327.930364" y="259.795016" style="fill: #0000ff; stroke: #0000ff"/>
     <use xlink:href="#m14496fc6bc" x="335.353186" y="258.513541" style="fill: #0000ff; stroke: #0000ff"/>
     <use xlink:href="#m14496fc6bc" x="341.713739" y="257.38232" style="fill: #0000ff; stroke: #0000ff"/>
     <use xlink:href="#m14496fc6bc" x="345.604294" y="256.675942" style="fill: #0000ff; stroke: #0000ff"/>
     <use xlink:href="#m14496fc6bc" x="347.456889" y="256.335837" style="fill: #0000ff; stroke: #0000ff"/>
     <use xlink:href="#m14496fc6bc" x="355.920172" y="254.752391" style="fill: #0000ff; stroke: #0000ff"/>
     <use xlink:href="#m14496fc6bc" x="364.833676" y="253.034223" style="fill: #0000ff; stroke: #0000ff"/>
     <use xlink:href="#m14496fc6bc" x="380.53025" y="249.891494" style="fill: #0000ff; stroke: #0000ff"/>
     <use xlink:href="#m14496fc6bc" x="383.019559" y="249.380153" style="fill: #0000ff; stroke: #0000ff"/>
     <use xlink:href="#m14496fc6bc" x="388.23637" y="248.297604" style="fill: #0000ff; stroke: #0000ff"/>
     <use xlink:href="#m14496fc6bc" x="399.380764" y="245.937272" style="fill: #0000ff; stroke: #0000ff"/>
     <use xlink:href="#m14496fc6bc" x="413.547205" y="242.848513" style="fill: #0000ff; stroke: #0000ff"/>
     <use xlink:href="#m14496fc6bc" x="416.710455" y="242.146038" style="fill: #0000ff; stroke: #0000ff"/>
    </g>
   </g>
   <g id="line2d_24">
    <defs>
     <path id="me1d42773d4" d="M -3 3 
L 3 3 
L 3 -3 
L -3 -3 
z
" style="stroke: #ff0000; stroke-linejoin: miter"/>
    </defs>
    <g clip-path="url(#p0f662d8a02)">
     <use xlink:href="#me1d42773d4" x="62.081664" y="50.230776" style="fill: #ff0000; stroke: #ff0000; stroke-linejoin: miter"/>
     <use xlink:href="#me1d42773d4" x="62.30322" y="60.48598" style="fill: #ff0000; stroke: #ff0000; stroke-linejoin: miter"/>
     <use xlink:href="#me1d42773d4" x="101.892724" y="239.784287" style="fill: #ff0000; stroke: #ff0000; stroke-linejoin: miter"/>
     <use xlink:href="#me1d42773d4" x="209.404559" y="271.8" style="fill: #ff0000; stroke: #ff0000; stroke-linejoin: miter"/>
     <use xlink:href="#me1d42773d4" x="209.404559" y="271.8" style="fill: #ff0000; stroke: #ff0000; stroke-linejoin: miter"/>
     <use xlink:href="#me1d42773d4" x="209.404559" y="271.8" style="fill: #ff0000; stroke: #ff0000; stroke-linejoin: miter"/>
     <use xlink:href="#me1d42773d4" x="209.404559" y="271.8" style="fill: #ff0000; stroke: #ff0000; stroke-linejoin: miter"/>
     <use xlink:href="#me1d42773d4" x="209.404559" y="271.8" style="fill: #ff0000; stroke: #ff0000; stroke-linejoin: miter"/>
     <use xlink:href="#me1d42773d4" x="209.404559" y="271.8" style="fill: #ff0000; stroke: #ff0000; stroke-linejoin: miter"/>
     <use xlink:href="#me1d42773d4" x="209.404559" y="271.8" style="fill: #ff0000; stroke: #ff0000; stroke-linejoin: miter"/>
     <use xlink:href="#me1d42773d4" x="209.404559" y="271.8" style="fill: #ff0000; stroke: #ff0000; stroke-linejoin: miter"/>
     <use xlink:href="#me1d42773d4" x="209.404559" y="271.8" style="fill: #ff0000; stroke: #ff0000; stroke-linejoin: miter"/>
     <use xlink:href="#me1d42773d4" x="209.404559" y="271.8" style="fill: #ff0000; stroke: #ff0000; stroke-linejoin: miter"/>
     <use xlink:href="#me1d42773d4" x="209.404559" y="271.8" style="fill: #ff0000; stroke: #ff0000; stroke-linejoin: miter"/>
     <use xlink:href="#me1d42773d4" x="209.404559" y="271.8" style="fill: #ff0000; stroke: #ff0000; stroke-linejoin: miter"/>
     <use xlink:href="#me1d42773d4" x="209.404559" y="271.8" style="fill: #ff0000; stroke: #ff0000; stroke-linejoin: miter"/>
     <use xlink:href="#me1d42773d4" x="209.404559" y="271.8" style="fill: #ff0000; stroke: #ff0000; stroke-linejoin: miter"/>
     <use xlink:href="#me1d42773d4" x="209.404559" y="271.8" style="fill: #ff0000; stroke: #ff0000; stroke-linejoin: miter"/>
     <use xlink:href="#me1d42773d4" x="209.404559" y="271.8" style="fill: #ff0000; stroke: #ff0000; stroke-linejoin: miter"/>
     <use xlink:href="#me1d42773d4" x="209.404559" y="271.8" style="fill: #ff0000; stroke: #ff0000; stroke-linejoin: miter"/>
     <use xlink:href="#me1d42773d4" x="209.404559" y="271.8" style="fill: #ff0000; stroke: #ff0000; stroke-linejoin: miter"/>
     <use xlink:href="#me1d42773d4" x="209.404559" y="271.8" style="fill: #ff0000; stroke: #ff0000; stroke-linejoin: miter"/>
     <use xlink:href="#me1d42773d4" x="209.404559" y="271.8" style="fill: #ff0000; stroke: #ff0000; stroke-linejoin: miter"/>
     <use xlink:href="#me1d42773d4" x="209.404559" y="271.8" style="fill: #ff0000; stroke: #ff0000; stroke-linejoin: miter"/>
     <use xlink:href="#me1d42773d4" x="209.404559" y="271.8" style="fill: #ff0000; stroke: #ff0000; stroke-linejoin: miter"/>
     <use xlink:href="#me1d42773d4" x="209.404559" y="271.8" style="fill: #ff0000; stroke: #ff0000; stroke-linejoin: miter"/>
     <use xlink:href="#me1d42773d4" x="209.404559" y="271.8" style="fill: #ff0000; stroke: #ff0000; stroke-linejoin: miter"/>
     <use xlink:href="#me1d42773d4" x="209.404559" y="271.8" style="fill: #ff0000; stroke: #ff0000; stroke-linejoin: miter"/>
     <use xlink:href="#me1d42773d4" x="209.404559" y="271.8" style="fill: #ff0000; stroke: #ff0000; stroke-linejoin: miter"/>
     <use xlink:href="#me1d42773d4" x="209.404559" y="271.8" style="fill: #ff0000; stroke: #ff0000; stroke-linejoin: miter"/>
     <use xlink:href="#me1d42773d4" x="209.404559" y="271.8" style="fill: #ff0000; stroke: #ff0000; stroke-linejoin: miter"/>
     <use xlink:href="#me1d42773d4" x="209.404559" y="271.8" style="fill: #ff0000; stroke: #ff0000; stroke-linejoin: miter"/>
     <use xlink:href="#me1d42773d4" x="209.404559" y="271.8" style="fill: #ff0000; stroke: #ff0000; stroke-linejoin: miter"/>
     <use xlink:href="#me1d42773d4" x="209.404559" y="271.8" style="fill: #ff0000; stroke: #ff0000; stroke-linejoin: miter"/>
     <use xlink:href="#me1d42773d4" x="209.404559" y="271.8" style="fill: #ff0000; stroke: #ff0000; stroke-linejoin: miter"/>
     <use xlink:href="#me1d42773d4" x="209.404559" y="271.8" style="fill: #ff0000; stroke: #ff0000; stroke-linejoin: miter"/>
     <use xlink:href="#me1d42773d4" x="209.404559" y="271.8" style="fill: #ff0000; stroke: #ff0000; stroke-linejoin: miter"/>
     <use xlink:href="#me1d42773d4" x="209.404559" y="271.8" style="fill: #ff0000; stroke: #ff0000; stroke-linejoin: miter"/>
     <use xlink:href="#me1d42773d4" x="209.404559" y="271.8" style="fill: #ff0000; stroke: #ff0000; stroke-linejoin: miter"/>
     <use xlink:href="#me1d42773d4" x="209.404559" y="271.8" style="fill: #ff0000; stroke: #ff0000; stroke-linejoin: miter"/>
     <use xlink:href="#me1d42773d4" x="209.404559" y="271.8" style="fill: #ff0000; stroke: #ff0000; stroke-linejoin: miter"/>
     <use xlink:href="#me1d42773d4" x="209.404559" y="271.8" style="fill: #ff0000; stroke: #ff0000; stroke-linejoin: miter"/>
     <use xlink:href="#me1d42773d4" x="209.404559" y="271.8" style="fill: #ff0000; stroke: #ff0000; stroke-linejoin: miter"/>
     <use xlink:href="#me1d42773d4" x="209.404559" y="271.8" style="fill: #ff0000; stroke: #ff0000; stroke-linejoin: miter"/>
     <use xlink:href="#me1d42773d4" x="209.404559" y="271.8" style="fill: #ff0000; stroke: #ff0000; stroke-linejoin: miter"/>
     <use xlink:href="#me1d42773d4" x="209.404559" y="271.8" style="fill: #ff0000; stroke: #ff0000; stroke-linejoin: miter"/>
     <use xlink:href="#me1d42773d4" x="209.404559" y="271.8" style="fill: #ff0000; stroke: #ff0000; stroke-linejoin: miter"/>
     <use xlink:href="#me1d42773d4" x="209.404559" y="271.8" style="fill: #ff0000; stroke: #ff0000; stroke-linejoin: miter"/>
     <use xlink:href="#me1d42773d4" x="209.404559" y="271.8" style="fill: #ff0000; stroke: #ff0000; stroke-linejoin: miter"/>
     <use xlink:href="#me1d42773d4" x="209.404559" y="271.8" style="fill: #ff0000; stroke: #ff0000; stroke-linejoin: miter"/>
     <use xlink:href="#me1d42773d4" x="209.404559" y="271.8" style="fill: #ff0000; stroke: #ff0000; stroke-linejoin: miter"/>
     <use xlink:href="#me1d42773d4" x="209.404559" y="271.8" style="fill: #ff0000; stroke: #ff0000; stroke-linejoin: miter"/>
     <use xlink:href="#me1d42773d4" x="209.404559" y="271.8" style="fill: #ff0000; stroke: #ff0000; stroke-linejoin: miter"/>
     <use xlink:href="#me1d42773d4" x="209.404559" y="271.8" style="fill: #ff0000; stroke: #ff0000; stroke-linejoin: miter"/>
     <use xlink:href="#me1d42773d4" x="209.404559" y="271.8" style="fill: #ff0000; stroke: #ff0000; stroke-linejoin: miter"/>
     <use xlink:href="#me1d42773d4" x="209.404559" y="271.8" style="fill: #ff0000; stroke: #ff0000; stroke-linejoin: miter"/>
     <use xlink:href="#me1d42773d4" x="209.404559" y="271.8" style="fill: #ff0000; stroke: #ff0000; stroke-linejoin: miter"/>
     <use xlink:href="#me1d42773d4" x="209.404559" y="271.8" style="fill: #ff0000; stroke: #ff0000; stroke-linejoin: miter"/>
     <use xlink:href="#me1d42773d4" x="209.404559" y="271.8" style="fill: #ff0000; stroke: #ff0000; stroke-linejoin: miter"/>
     <use xlink:href="#me1d42773d4" x="209.404559" y="271.8" style="fill: #ff0000; stroke: #ff0000; stroke-linejoin: miter"/>
     <use xlink:href="#me1d42773d4" x="209.404559" y="271.8" style="fill: #ff0000; stroke: #ff0000; stroke-linejoin: miter"/>
     <use xlink:href="#me1d42773d4" x="209.404559" y="271.8" style="fill: #ff0000; stroke: #ff0000; stroke-linejoin: miter"/>
     <use xlink:href="#me1d42773d4" x="209.404559" y="271.8" style="fill: #ff0000; stroke: #ff0000; stroke-linejoin: miter"/>
     <use xlink:href="#me1d42773d4" x="209.404559" y="271.8" style="fill: #ff0000; stroke: #ff0000; stroke-linejoin: miter"/>
     <use xlink:href="#me1d42773d4" x="209.404559" y="271.8" style="fill: #ff0000; stroke: #ff0000; stroke-linejoin: miter"/>
     <use xlink:href="#me1d42773d4" x="209.404559" y="271.8" style="fill: #ff0000; stroke: #ff0000; stroke-linejoin: miter"/>
     <use xlink:href="#me1d42773d4" x="209.404559" y="271.8" style="fill: #ff0000; stroke: #ff0000; stroke-linejoin: miter"/>
     <use xlink:href="#me1d42773d4" x="209.404559" y="271.8" style="fill: #ff0000; stroke: #ff0000; stroke-linejoin: miter"/>
     <use xlink:href="#me1d42773d4" x="209.404559" y="271.8" style="fill: #ff0000; stroke: #ff0000; stroke-linejoin: miter"/>
     <use xlink:href="#me1d42773d4" x="209.404559" y="271.8" style="fill: #ff0000; stroke: #ff0000; stroke-linejoin: miter"/>
     <use xlink:href="#me1d42773d4" x="209.404559" y="271.8" style="fill: #ff0000; stroke: #ff0000; stroke-linejoin: miter"/>
     <use xlink:href="#me1d42773d4" x="209.404559" y="271.8" style="fill: #ff0000; stroke: #ff0000; stroke-linejoin: miter"/>
     <use xlink:href="#me1d42773d4" x="209.404559" y="271.8" style="fill: #ff0000; stroke: #ff0000; stroke-linejoin: miter"/>
     <use xlink:href="#me1d42773d4" x="209.404559" y="271.8" style="fill: #ff0000; stroke: #ff0000; stroke-linejoin: miter"/>
     <use xlink:href="#me1d42773d4" x="209.404559" y="271.8" style="fill: #ff0000; stroke: #ff0000; stroke-linejoin: miter"/>
     <use xlink:href="#me1d42773d4" x="209.404559" y="271.8" style="fill: #ff0000; stroke: #ff0000; stroke-linejoin: miter"/>
     <use xlink:href="#me1d42773d4" x="209.404559" y="271.8" style="fill: #ff0000; stroke: #ff0000; stroke-linejoin: miter"/>
     <use xlink:href="#me1d42773d4" x="209.404559" y="271.8" style="fill: #ff0000; stroke: #ff0000; stroke-linejoin: miter"/>
     <use xlink:href="#me1d42773d4" x="209.404559" y="271.8" style="fill: #ff0000; stroke: #ff0000; stroke-linejoin: miter"/>
     <use xlink:href="#me1d42773d4" x="209.404559" y="271.8" style="fill: #ff0000; stroke: #ff0000; stroke-linejoin: miter"/>
     <use xlink:href="#me1d42773d4" x="209.404559" y="271.8" style="fill: #ff0000; stroke: #ff0000; stroke-linejoin: miter"/>
     <use xlink:href="#me1d42773d4" x="209.404559" y="271.8" style="fill: #ff0000; stroke: #ff0000; stroke-linejoin: miter"/>
     <use xlink:href="#me1d42773d4" x="209.404559" y="271.8" style="fill: #ff0000; stroke: #ff0000; stroke-linejoin: miter"/>
     <use xlink:href="#me1d42773d4" x="209.404559" y="271.8" style="fill: #ff0000; stroke: #ff0000; stroke-linejoin: miter"/>
     <use xlink:href="#me1d42773d4" x="209.404559" y="271.8" style="fill: #ff0000; stroke: #ff0000; stroke-linejoin: miter"/>
     <use xlink:href="#me1d42773d4" x="209.404559" y="271.8" style="fill: #ff0000; stroke: #ff0000; stroke-linejoin: miter"/>
     <use xlink:href="#me1d42773d4" x="209.404559" y="271.8" style="fill: #ff0000; stroke: #ff0000; stroke-linejoin: miter"/>
     <use xlink:href="#me1d42773d4" x="209.404559" y="271.8" style="fill: #ff0000; stroke: #ff0000; stroke-linejoin: miter"/>
     <use xlink:href="#me1d42773d4" x="209.404559" y="271.8" style="fill: #ff0000; stroke: #ff0000; stroke-linejoin: miter"/>
     <use xlink:href="#me1d42773d4" x="209.404559" y="271.8" style="fill: #ff0000; stroke: #ff0000; stroke-linejoin: miter"/>
     <use xlink:href="#me1d42773d4" x="209.404559" y="271.8" style="fill: #ff0000; stroke: #ff0000; stroke-linejoin: miter"/>
     <use xlink:href="#me1d42773d4" x="209.404559" y="271.8" style="fill: #ff0000; stroke: #ff0000; stroke-linejoin: miter"/>
     <use xlink:href="#me1d42773d4" x="209.404559" y="271.8" style="fill: #ff0000; stroke: #ff0000; stroke-linejoin: miter"/>
     <use xlink:href="#me1d42773d4" x="209.404559" y="271.8" style="fill: #ff0000; stroke: #ff0000; stroke-linejoin: miter"/>
     <use xlink:href="#me1d42773d4" x="209.404559" y="271.8" style="fill: #ff0000; stroke: #ff0000; stroke-linejoin: miter"/>
     <use xlink:href="#me1d42773d4" x="209.404559" y="271.8" style="fill: #ff0000; stroke: #ff0000; stroke-linejoin: miter"/>
     <use xlink:href="#me1d42773d4" x="209.404559" y="271.8" style="fill: #ff0000; stroke: #ff0000; stroke-linejoin: miter"/>
     <use xlink:href="#me1d42773d4" x="209.404559" y="271.8" style="fill: #ff0000; stroke: #ff0000; stroke-linejoin: miter"/>
     <use xlink:href="#me1d42773d4" x="209.404559" y="271.8" style="fill: #ff0000; stroke: #ff0000; stroke-linejoin: miter"/>
     <use xlink:href="#me1d42773d4" x="209.404559" y="271.8" style="fill: #ff0000; stroke: #ff0000; stroke-linejoin: miter"/>
    </g>
   </g>
   <g id="patch_3">
    <path d="M 43.865 284.4 
L 43.865 7.2 
" style="fill: none; stroke: #000000; stroke-width: 0.8; stroke-linejoin: miter; stroke-linecap: square"/>
   </g>
   <g id="patch_4">
    <path d="M 434.465 284.4 
L 434.465 7.2 
" style="fill: none; stroke: #000000; stroke-width: 0.8; stroke-linejoin: miter; stroke-linecap: square"/>
   </g>
   <g id="patch_5">
    <path d="M 43.865 284.4 
L 434.465 284.4 
" style="fill: none; stroke: #000000; stroke-width: 0.8; stroke-linejoin: miter; stroke-linecap: square"/>
   </g>
   <g id="patch_6">
    <path d="M 43.865 7.2 
L 434.465 7.2 
" style="fill: none; stroke: #000000; stroke-width: 0.8; stroke-linejoin: miter; stroke-linecap: square"/>
   </g>
   <g id="legend_1">
    <g id="patch_7">
     <path d="M 228.225 73.44 
L 423.265 73.44 
Q 426.465 73.44 426.465 70.24 
L 426.465 18.4 
Q 426.465 15.2 423.265 15.2 
L 228.225 15.2 
Q 225.025 15.2 225.025 18.4 
L 225.025 70.24 
Q 225.025 73.44 228.225 73.44 
z
" style="fill: #ffffff; opacity: 0.8; stroke: #cccccc; stroke-linejoin: miter"/>
    </g>
    <g id="line2d_25">
     <g>
      <use xlink:href="#m14496fc6bc" x="247.425" y="32.16" style="fill: #0000ff; stroke: #0000ff"/>
     </g>
    </g>
    <g id="text_14">
     <!-- Eigenvalues of $\widehat{\mathbf{\Sigma}}^*$ -->
     <g transform="translate(276.225 37.76) scale(0.16 -0.16)">
      <defs>
       <path id="DejaVuSans-6f" d="M 1959 3097 
Q 1497 3097 1228 2736 
Q 959 2375 959 1747 
Q 959 1119 1226 758 
Q 1494 397 1959 397 
Q 2419 397 2687 759 
Q 2956 1122 2956 1747 
Q 2956 2369 2687 2733 
Q 2419 3097 1959 3097 
z
M 1959 3584 
Q 2709 3584 3137 3096 
Q 3566 2609 3566 1747 
Q 3566 888 3137 398 
Q 2709 -91 1959 -91 
Q 1206 -91 779 398 
Q 353 888 353 1747 
Q 353 2609 779 3096 
Q 1206 3584 1959 3584 
z
" transform="scale(0.015625)"/>
       <path id="DejaVuSans-66" d="M 2375 4863 
L 2375 4384 
L 1825 4384 
Q 1516 4384 1395 4259 
Q 1275 4134 1275 3809 
L 1275 3500 
L 2222 3500 
L 2222 3053 
L 1275 3053 
L 1275 0 
L 697 0 
L 697 3053 
L 147 3053 
L 147 3500 
L 697 3500 
L 697 3744 
Q 697 4328 969 4595 
Q 1241 4863 1831 4863 
L 2375 4863 
z
" transform="scale(0.015625)"/>
       <path id="STIXSizeTwoSym-Regular-302" d="M -1094 3610 
L -1728 3610 
L -4224 4538 
L -6726 3610 
L -7360 3610 
L -4378 4973 
L -4070 4973 
L -1094 3610 
z
" transform="scale(0.015625)"/>
       <path id="DejaVuSans-Bold-3a3" d="M 1684 909 
L 3903 909 
L 3903 0 
L 588 0 
L 588 1003 
L 2075 2481 
L 588 3703 
L 588 4666 
L 3834 4666 
L 3834 3756 
L 1738 3756 
L 3278 2494 
L 1684 909 
z
" transform="scale(0.015625)"/>
       <path id="DejaVuSans-2a" d="M 3009 3897 
L 1888 3291 
L 3009 2681 
L 2828 2375 
L 1778 3009 
L 1778 1831 
L 1422 1831 
L 1422 3009 
L 372 2375 
L 191 2681 
L 1313 3291 
L 191 3897 
L 372 4206 
L 1422 3572 
L 1422 4750 
L 1778 4750 
L 1778 3572 
L 2828 4206 
L 3009 3897 
z
" transform="scale(0.015625)"/>
      </defs>
      <use xlink:href="#DejaVuSans-45" transform="translate(0 0.734375)"/>
      <use xlink:href="#DejaVuSans-69" transform="translate(63.183594 0.734375)"/>
      <use xlink:href="#DejaVuSans-67" transform="translate(90.966797 0.734375)"/>
      <use xlink:href="#DejaVuSans-65" transform="translate(154.443359 0.734375)"/>
      <use xlink:href="#DejaVuSans-6e" transform="translate(215.966797 0.734375)"/>
      <use xlink:href="#DejaVuSans-76" transform="translate(279.345703 0.734375)"/>
      <use xlink:href="#DejaVuSans-61" transform="translate(338.525391 0.734375)"/>
      <use xlink:href="#DejaVuSans-6c" transform="translate(399.804688 0.734375)"/>
      <use xlink:href="#DejaVuSans-75" transform="translate(427.587891 0.734375)"/>
      <use xlink:href="#DejaVuSans-65" transform="translate(490.966797 0.734375)"/>
      <use xlink:href="#DejaVuSans-73" transform="translate(552.490234 0.734375)"/>
      <use xlink:href="#DejaVuSans-20" transform="translate(604.589844 0.734375)"/>
      <use xlink:href="#DejaVuSans-6f" transform="translate(636.376953 0.734375)"/>
      <use xlink:href="#DejaVuSans-66" transform="translate(697.558594 0.734375)"/>
      <use xlink:href="#DejaVuSans-20" transform="translate(732.763672 0.734375)"/>
      <use xlink:href="#STIXSizeTwoSym-Regular-302" transform="translate(852.862793 46.796875) scale(0.697714)"/>
      <use xlink:href="#DejaVuSans-Bold-3a3" transform="translate(764.550781 0.734375)"/>
      <use xlink:href="#DejaVuSans-2a" transform="translate(847.456055 39.015625) scale(0.7)"/>
     </g>
    </g>
    <g id="line2d_26">
     <g>
      <use xlink:href="#me1d42773d4" x="247.425" y="58.08" style="fill: #ff0000; stroke: #ff0000; stroke-linejoin: miter"/>
     </g>
    </g>
    <g id="text_15">
     <!-- Eigenvalues of $\mathbf{\Sigma}^*$ -->
     <g transform="translate(276.225 63.68) scale(0.16 -0.16)">
      <use xlink:href="#DejaVuSans-45" transform="translate(0 0.765625)"/>
      <use xlink:href="#DejaVuSans-69" transform="translate(63.183594 0.765625)"/>
      <use xlink:href="#DejaVuSans-67" transform="translate(90.966797 0.765625)"/>
      <use xlink:href="#DejaVuSans-65" transform="translate(154.443359 0.765625)"/>
      <use xlink:href="#DejaVuSans-6e" transform="translate(215.966797 0.765625)"/>
      <use xlink:href="#DejaVuSans-76" transform="translate(279.345703 0.765625)"/>
      <use xlink:href="#DejaVuSans-61" transform="translate(338.525391 0.765625)"/>
      <use xlink:href="#DejaVuSans-6c" transform="translate(399.804688 0.765625)"/>
      <use xlink:href="#DejaVuSans-75" transform="translate(427.587891 0.765625)"/>
      <use xlink:href="#DejaVuSans-65" transform="translate(490.966797 0.765625)"/>
      <use xlink:href="#DejaVuSans-73" transform="translate(552.490234 0.765625)"/>
      <use xlink:href="#DejaVuSans-20" transform="translate(604.589844 0.765625)"/>
      <use xlink:href="#DejaVuSans-6f" transform="translate(636.376953 0.765625)"/>
      <use xlink:href="#DejaVuSans-66" transform="translate(697.558594 0.765625)"/>
      <use xlink:href="#DejaVuSans-20" transform="translate(732.763672 0.765625)"/>
      <use xlink:href="#DejaVuSans-Bold-3a3" transform="translate(764.550781 0.765625)"/>
      <use xlink:href="#DejaVuSans-2a" transform="translate(847.456055 39.046875) scale(0.7)"/>
     </g>
    </g>
   </g>
  </g>
 </g>
 <defs>
  <clipPath id="p0f662d8a02">
   <rect x="43.865" y="7.2" width="390.6" height="277.2"/>
  </clipPath>
 </defs>
</svg>
