<?xml version="1.0" encoding="utf-8" standalone="no"?>
<!DOCTYPE svg PUBLIC "-//W3C//DTD SVG 1.1//EN"
  "http://www.w3.org/Graphics/SVG/1.1/DTD/svg11.dtd">
<svg xmlns:xlink="http://www.w3.org/1999/xlink" width="462.38pt" height="333.57pt" viewBox="0 0 462.38 333.57" xmlns="http://www.w3.org/2000/svg" version="1.1">
 <metadata>
  <rdf:RDF xmlns:dc="http://purl.org/dc/elements/1.1/" xmlns:cc="http://creativecommons.org/ns#" xmlns:rdf="http://www.w3.org/1999/02/22-rdf-syntax-ns#">
   <cc:Work>
    <dc:type rdf:resource="http://purl.org/dc/dcmitype/StillImage"/>
    <dc:date>2024-04-07T01:08:55.669069</dc:date>
    <dc:format>image/svg+xml</dc:format>
    <dc:creator>
     <cc:Agent>
      <dc:title>Matplotlib v3.8.3, https://matplotlib.org/</dc:title>
     </cc:Agent>
    </dc:creator>
   </cc:Work>
  </rdf:RDF>
 </metadata>
 <defs>
  <style type="text/css">*{stroke-linejoin: round; stroke-linecap: butt}</style>
 </defs>
 <g id="figure_1">
  <g id="patch_1">
   <path d="M 0 333.57 
L 462.38 333.57 
L 462.38 0 
L 0 0 
z
" style="fill: #ffffff"/>
  </g>
  <g id="axes_1">
   <g id="patch_2">
    <path d="M 64.58 284.4 
L 455.18 284.4 
L 455.18 7.2 
L 64.58 7.2 
z
" style="fill: #ffffff"/>
   </g>
   <g id="matplotlib.axis_1">
    <g id="xtick_1">
     <g id="line2d_1">
      <path d="M 138.401531 284.4 
L 138.401531 7.2 
" clip-path="url(#pf7811f6a78)" style="fill: none; stroke: #b0b0b0; stroke-width: 0.8; stroke-linecap: square"/>
     </g>
     <g id="line2d_2">
      <defs>
       <path id="m88f3476967" d="M 0 0 
L 0 3.5 
" style="stroke: #000000; stroke-width: 0.8"/>
      </defs>
      <g>
       <use xlink:href="#m88f3476967" x="138.401531" y="284.4" style="stroke: #000000; stroke-width: 0.8"/>
      </g>
     </g>
     <g id="text_1">
      <!-- 20 -->
      <g transform="translate(128.221531 303.5575) scale(0.16 -0.16)">
       <defs>
        <path id="DejaVuSans-32" d="M 1228 531 
L 3431 531 
L 3431 0 
L 469 0 
L 469 531 
Q 828 903 1448 1529 
Q 2069 2156 2228 2338 
Q 2531 2678 2651 2914 
Q 2772 3150 2772 3378 
Q 2772 3750 2511 3984 
Q 2250 4219 1831 4219 
Q 1534 4219 1204 4116 
Q 875 4013 500 3803 
L 500 4441 
Q 881 4594 1212 4672 
Q 1544 4750 1819 4750 
Q 2544 4750 2975 4387 
Q 3406 4025 3406 3419 
Q 3406 3131 3298 2873 
Q 3191 2616 2906 2266 
Q 2828 2175 2409 1742 
Q 1991 1309 1228 531 
z
" transform="scale(0.015625)"/>
        <path id="DejaVuSans-30" d="M 2034 4250 
Q 1547 4250 1301 3770 
Q 1056 3291 1056 2328 
Q 1056 1369 1301 889 
Q 1547 409 2034 409 
Q 2525 409 2770 889 
Q 3016 1369 3016 2328 
Q 3016 3291 2770 3770 
Q 2525 4250 2034 4250 
z
M 2034 4750 
Q 2819 4750 3233 4129 
Q 3647 3509 3647 2328 
Q 3647 1150 3233 529 
Q 2819 -91 2034 -91 
Q 1250 -91 836 529 
Q 422 1150 422 2328 
Q 422 3509 836 4129 
Q 1250 4750 2034 4750 
z
" transform="scale(0.015625)"/>
       </defs>
       <use xlink:href="#DejaVuSans-32"/>
       <use xlink:href="#DejaVuSans-30" x="63.623047"/>
      </g>
     </g>
    </g>
    <g id="xtick_2">
     <g id="line2d_3">
      <path d="M 213.157512 284.4 
L 213.157512 7.2 
" clip-path="url(#pf7811f6a78)" style="fill: none; stroke: #b0b0b0; stroke-width: 0.8; stroke-linecap: square"/>
     </g>
     <g id="line2d_4">
      <g>
       <use xlink:href="#m88f3476967" x="213.157512" y="284.4" style="stroke: #000000; stroke-width: 0.8"/>
      </g>
     </g>
     <g id="text_2">
      <!-- 40 -->
      <g transform="translate(202.977512 303.5575) scale(0.16 -0.16)">
       <defs>
        <path id="DejaVuSans-34" d="M 2419 4116 
L 825 1625 
L 2419 1625 
L 2419 4116 
z
M 2253 4666 
L 3047 4666 
L 3047 1625 
L 3713 1625 
L 3713 1100 
L 3047 1100 
L 3047 0 
L 2419 0 
L 2419 1100 
L 313 1100 
L 313 1709 
L 2253 4666 
z
" transform="scale(0.015625)"/>
       </defs>
       <use xlink:href="#DejaVuSans-34"/>
       <use xlink:href="#DejaVuSans-30" x="63.623047"/>
      </g>
     </g>
    </g>
    <g id="xtick_3">
     <g id="line2d_5">
      <path d="M 287.913493 284.4 
L 287.913493 7.2 
" clip-path="url(#pf7811f6a78)" style="fill: none; stroke: #b0b0b0; stroke-width: 0.8; stroke-linecap: square"/>
     </g>
     <g id="line2d_6">
      <g>
       <use xlink:href="#m88f3476967" x="287.913493" y="284.4" style="stroke: #000000; stroke-width: 0.8"/>
      </g>
     </g>
     <g id="text_3">
      <!-- 60 -->
      <g transform="translate(277.733493 303.5575) scale(0.16 -0.16)">
       <defs>
        <path id="DejaVuSans-36" d="M 2113 2584 
Q 1688 2584 1439 2293 
Q 1191 2003 1191 1497 
Q 1191 994 1439 701 
Q 1688 409 2113 409 
Q 2538 409 2786 701 
Q 3034 994 3034 1497 
Q 3034 2003 2786 2293 
Q 2538 2584 2113 2584 
z
M 3366 4563 
L 3366 3988 
Q 3128 4100 2886 4159 
Q 2644 4219 2406 4219 
Q 1781 4219 1451 3797 
Q 1122 3375 1075 2522 
Q 1259 2794 1537 2939 
Q 1816 3084 2150 3084 
Q 2853 3084 3261 2657 
Q 3669 2231 3669 1497 
Q 3669 778 3244 343 
Q 2819 -91 2113 -91 
Q 1303 -91 875 529 
Q 447 1150 447 2328 
Q 447 3434 972 4092 
Q 1497 4750 2381 4750 
Q 2619 4750 2861 4703 
Q 3103 4656 3366 4563 
z
" transform="scale(0.015625)"/>
       </defs>
       <use xlink:href="#DejaVuSans-36"/>
       <use xlink:href="#DejaVuSans-30" x="63.623047"/>
      </g>
     </g>
    </g>
    <g id="xtick_4">
     <g id="line2d_7">
      <path d="M 362.669474 284.4 
L 362.669474 7.2 
" clip-path="url(#pf7811f6a78)" style="fill: none; stroke: #b0b0b0; stroke-width: 0.8; stroke-linecap: square"/>
     </g>
     <g id="line2d_8">
      <g>
       <use xlink:href="#m88f3476967" x="362.669474" y="284.4" style="stroke: #000000; stroke-width: 0.8"/>
      </g>
     </g>
     <g id="text_4">
      <!-- 80 -->
      <g transform="translate(352.489474 303.5575) scale(0.16 -0.16)">
       <defs>
        <path id="DejaVuSans-38" d="M 2034 2216 
Q 1584 2216 1326 1975 
Q 1069 1734 1069 1313 
Q 1069 891 1326 650 
Q 1584 409 2034 409 
Q 2484 409 2743 651 
Q 3003 894 3003 1313 
Q 3003 1734 2745 1975 
Q 2488 2216 2034 2216 
z
M 1403 2484 
Q 997 2584 770 2862 
Q 544 3141 544 3541 
Q 544 4100 942 4425 
Q 1341 4750 2034 4750 
Q 2731 4750 3128 4425 
Q 3525 4100 3525 3541 
Q 3525 3141 3298 2862 
Q 3072 2584 2669 2484 
Q 3125 2378 3379 2068 
Q 3634 1759 3634 1313 
Q 3634 634 3220 271 
Q 2806 -91 2034 -91 
Q 1263 -91 848 271 
Q 434 634 434 1313 
Q 434 1759 690 2068 
Q 947 2378 1403 2484 
z
M 1172 3481 
Q 1172 3119 1398 2916 
Q 1625 2713 2034 2713 
Q 2441 2713 2670 2916 
Q 2900 3119 2900 3481 
Q 2900 3844 2670 4047 
Q 2441 4250 2034 4250 
Q 1625 4250 1398 4047 
Q 1172 3844 1172 3481 
z
" transform="scale(0.015625)"/>
       </defs>
       <use xlink:href="#DejaVuSans-38"/>
       <use xlink:href="#DejaVuSans-30" x="63.623047"/>
      </g>
     </g>
    </g>
    <g id="xtick_5">
     <g id="line2d_9">
      <path d="M 437.425455 284.4 
L 437.425455 7.2 
" clip-path="url(#pf7811f6a78)" style="fill: none; stroke: #b0b0b0; stroke-width: 0.8; stroke-linecap: square"/>
     </g>
     <g id="line2d_10">
      <g>
       <use xlink:href="#m88f3476967" x="437.425455" y="284.4" style="stroke: #000000; stroke-width: 0.8"/>
      </g>
     </g>
     <g id="text_5">
      <!-- 100 -->
      <g transform="translate(422.155455 303.5575) scale(0.16 -0.16)">
       <defs>
        <path id="DejaVuSans-31" d="M 794 531 
L 1825 531 
L 1825 4091 
L 703 3866 
L 703 4441 
L 1819 4666 
L 2450 4666 
L 2450 531 
L 3481 531 
L 3481 0 
L 794 0 
L 794 531 
z
" transform="scale(0.015625)"/>
       </defs>
       <use xlink:href="#DejaVuSans-31"/>
       <use xlink:href="#DejaVuSans-30" x="63.623047"/>
       <use xlink:href="#DejaVuSans-30" x="127.246094"/>
      </g>
     </g>
    </g>
    <g id="text_6">
     <!-- Dimension -->
     <g transform="translate(217.3575 323.0425) scale(0.16 -0.16)">
      <defs>
       <path id="DejaVuSans-44" d="M 1259 4147 
L 1259 519 
L 2022 519 
Q 2988 519 3436 956 
Q 3884 1394 3884 2338 
Q 3884 3275 3436 3711 
Q 2988 4147 2022 4147 
L 1259 4147 
z
M 628 4666 
L 1925 4666 
Q 3281 4666 3915 4102 
Q 4550 3538 4550 2338 
Q 4550 1131 3912 565 
Q 3275 0 1925 0 
L 628 0 
L 628 4666 
z
" transform="scale(0.015625)"/>
       <path id="DejaVuSans-69" d="M 603 3500 
L 1178 3500 
L 1178 0 
L 603 0 
L 603 3500 
z
M 603 4863 
L 1178 4863 
L 1178 4134 
L 603 4134 
L 603 4863 
z
" transform="scale(0.015625)"/>
       <path id="DejaVuSans-6d" d="M 3328 2828 
Q 3544 3216 3844 3400 
Q 4144 3584 4550 3584 
Q 5097 3584 5394 3201 
Q 5691 2819 5691 2113 
L 5691 0 
L 5113 0 
L 5113 2094 
Q 5113 2597 4934 2840 
Q 4756 3084 4391 3084 
Q 3944 3084 3684 2787 
Q 3425 2491 3425 1978 
L 3425 0 
L 2847 0 
L 2847 2094 
Q 2847 2600 2669 2842 
Q 2491 3084 2119 3084 
Q 1678 3084 1418 2786 
Q 1159 2488 1159 1978 
L 1159 0 
L 581 0 
L 581 3500 
L 1159 3500 
L 1159 2956 
Q 1356 3278 1631 3431 
Q 1906 3584 2284 3584 
Q 2666 3584 2933 3390 
Q 3200 3197 3328 2828 
z
" transform="scale(0.015625)"/>
       <path id="DejaVuSans-65" d="M 3597 1894 
L 3597 1613 
L 953 1613 
Q 991 1019 1311 708 
Q 1631 397 2203 397 
Q 2534 397 2845 478 
Q 3156 559 3463 722 
L 3463 178 
Q 3153 47 2828 -22 
Q 2503 -91 2169 -91 
Q 1331 -91 842 396 
Q 353 884 353 1716 
Q 353 2575 817 3079 
Q 1281 3584 2069 3584 
Q 2775 3584 3186 3129 
Q 3597 2675 3597 1894 
z
M 3022 2063 
Q 3016 2534 2758 2815 
Q 2500 3097 2075 3097 
Q 1594 3097 1305 2825 
Q 1016 2553 972 2059 
L 3022 2063 
z
" transform="scale(0.015625)"/>
       <path id="DejaVuSans-6e" d="M 3513 2113 
L 3513 0 
L 2938 0 
L 2938 2094 
Q 2938 2591 2744 2837 
Q 2550 3084 2163 3084 
Q 1697 3084 1428 2787 
Q 1159 2491 1159 1978 
L 1159 0 
L 581 0 
L 581 3500 
L 1159 3500 
L 1159 2956 
Q 1366 3272 1645 3428 
Q 1925 3584 2291 3584 
Q 2894 3584 3203 3211 
Q 3513 2838 3513 2113 
z
" transform="scale(0.015625)"/>
       <path id="DejaVuSans-73" d="M 2834 3397 
L 2834 2853 
Q 2591 2978 2328 3040 
Q 2066 3103 1784 3103 
Q 1356 3103 1142 2972 
Q 928 2841 928 2578 
Q 928 2378 1081 2264 
Q 1234 2150 1697 2047 
L 1894 2003 
Q 2506 1872 2764 1633 
Q 3022 1394 3022 966 
Q 3022 478 2636 193 
Q 2250 -91 1575 -91 
Q 1294 -91 989 -36 
Q 684 19 347 128 
L 347 722 
Q 666 556 975 473 
Q 1284 391 1588 391 
Q 1994 391 2212 530 
Q 2431 669 2431 922 
Q 2431 1156 2273 1281 
Q 2116 1406 1581 1522 
L 1381 1569 
Q 847 1681 609 1914 
Q 372 2147 372 2553 
Q 372 3047 722 3315 
Q 1072 3584 1716 3584 
Q 2034 3584 2315 3537 
Q 2597 3491 2834 3397 
z
" transform="scale(0.015625)"/>
       <path id="DejaVuSans-6f" d="M 1959 3097 
Q 1497 3097 1228 2736 
Q 959 2375 959 1747 
Q 959 1119 1226 758 
Q 1494 397 1959 397 
Q 2419 397 2687 759 
Q 2956 1122 2956 1747 
Q 2956 2369 2687 2733 
Q 2419 3097 1959 3097 
z
M 1959 3584 
Q 2709 3584 3137 3096 
Q 3566 2609 3566 1747 
Q 3566 888 3137 398 
Q 2709 -91 1959 -91 
Q 1206 -91 779 398 
Q 353 888 353 1747 
Q 353 2609 779 3096 
Q 1206 3584 1959 3584 
z
" transform="scale(0.015625)"/>
      </defs>
      <use xlink:href="#DejaVuSans-44"/>
      <use xlink:href="#DejaVuSans-69" x="77.001953"/>
      <use xlink:href="#DejaVuSans-6d" x="104.785156"/>
      <use xlink:href="#DejaVuSans-65" x="202.197266"/>
      <use xlink:href="#DejaVuSans-6e" x="263.720703"/>
      <use xlink:href="#DejaVuSans-73" x="327.099609"/>
      <use xlink:href="#DejaVuSans-69" x="379.199219"/>
      <use xlink:href="#DejaVuSans-6f" x="406.982422"/>
      <use xlink:href="#DejaVuSans-6e" x="468.164062"/>
     </g>
    </g>
   </g>
   <g id="matplotlib.axis_2">
    <g id="ytick_1">
     <g id="line2d_11">
      <path d="M 64.58 274.17874 
L 455.18 274.17874 
" clip-path="url(#pf7811f6a78)" style="fill: none; stroke: #b0b0b0; stroke-width: 0.8; stroke-linecap: square"/>
     </g>
     <g id="line2d_12">
      <defs>
       <path id="m2794552b0e" d="M 0 0 
L -3.5 0 
" style="stroke: #000000; stroke-width: 0.8"/>
      </defs>
      <g>
       <use xlink:href="#m2794552b0e" x="64.58" y="274.17874" style="stroke: #000000; stroke-width: 0.8"/>
      </g>
     </g>
     <g id="text_7">
      <!-- 0 -->
      <g transform="translate(47.4 280.25749) scale(0.16 -0.16)">
       <use xlink:href="#DejaVuSans-30"/>
      </g>
     </g>
    </g>
    <g id="ytick_2">
     <g id="line2d_13">
      <path d="M 64.58 234.722467 
L 455.18 234.722467 
" clip-path="url(#pf7811f6a78)" style="fill: none; stroke: #b0b0b0; stroke-width: 0.8; stroke-linecap: square"/>
     </g>
     <g id="line2d_14">
      <g>
       <use xlink:href="#m2794552b0e" x="64.58" y="234.722467" style="stroke: #000000; stroke-width: 0.8"/>
      </g>
     </g>
     <g id="text_8">
      <!-- 20 -->
      <g transform="translate(37.22 240.801217) scale(0.16 -0.16)">
       <use xlink:href="#DejaVuSans-32"/>
       <use xlink:href="#DejaVuSans-30" x="63.623047"/>
      </g>
     </g>
    </g>
    <g id="ytick_3">
     <g id="line2d_15">
      <path d="M 64.58 195.266194 
L 455.18 195.266194 
" clip-path="url(#pf7811f6a78)" style="fill: none; stroke: #b0b0b0; stroke-width: 0.8; stroke-linecap: square"/>
     </g>
     <g id="line2d_16">
      <g>
       <use xlink:href="#m2794552b0e" x="64.58" y="195.266194" style="stroke: #000000; stroke-width: 0.8"/>
      </g>
     </g>
     <g id="text_9">
      <!-- 40 -->
      <g transform="translate(37.22 201.344944) scale(0.16 -0.16)">
       <use xlink:href="#DejaVuSans-34"/>
       <use xlink:href="#DejaVuSans-30" x="63.623047"/>
      </g>
     </g>
    </g>
    <g id="ytick_4">
     <g id="line2d_17">
      <path d="M 64.58 155.809921 
L 455.18 155.809921 
" clip-path="url(#pf7811f6a78)" style="fill: none; stroke: #b0b0b0; stroke-width: 0.8; stroke-linecap: square"/>
     </g>
     <g id="line2d_18">
      <g>
       <use xlink:href="#m2794552b0e" x="64.58" y="155.809921" style="stroke: #000000; stroke-width: 0.8"/>
      </g>
     </g>
     <g id="text_10">
      <!-- 60 -->
      <g transform="translate(37.22 161.888671) scale(0.16 -0.16)">
       <use xlink:href="#DejaVuSans-36"/>
       <use xlink:href="#DejaVuSans-30" x="63.623047"/>
      </g>
     </g>
    </g>
    <g id="ytick_5">
     <g id="line2d_19">
      <path d="M 64.58 116.353648 
L 455.18 116.353648 
" clip-path="url(#pf7811f6a78)" style="fill: none; stroke: #b0b0b0; stroke-width: 0.8; stroke-linecap: square"/>
     </g>
     <g id="line2d_20">
      <g>
       <use xlink:href="#m2794552b0e" x="64.58" y="116.353648" style="stroke: #000000; stroke-width: 0.8"/>
      </g>
     </g>
     <g id="text_11">
      <!-- 80 -->
      <g transform="translate(37.22 122.432398) scale(0.16 -0.16)">
       <use xlink:href="#DejaVuSans-38"/>
       <use xlink:href="#DejaVuSans-30" x="63.623047"/>
      </g>
     </g>
    </g>
    <g id="ytick_6">
     <g id="line2d_21">
      <path d="M 64.58 76.897375 
L 455.18 76.897375 
" clip-path="url(#pf7811f6a78)" style="fill: none; stroke: #b0b0b0; stroke-width: 0.8; stroke-linecap: square"/>
     </g>
     <g id="line2d_22">
      <g>
       <use xlink:href="#m2794552b0e" x="64.58" y="76.897375" style="stroke: #000000; stroke-width: 0.8"/>
      </g>
     </g>
     <g id="text_12">
      <!-- 100 -->
      <g transform="translate(27.04 82.976125) scale(0.16 -0.16)">
       <use xlink:href="#DejaVuSans-31"/>
       <use xlink:href="#DejaVuSans-30" x="63.623047"/>
       <use xlink:href="#DejaVuSans-30" x="127.246094"/>
      </g>
     </g>
    </g>
    <g id="ytick_7">
     <g id="line2d_23">
      <path d="M 64.58 37.441102 
L 455.18 37.441102 
" clip-path="url(#pf7811f6a78)" style="fill: none; stroke: #b0b0b0; stroke-width: 0.8; stroke-linecap: square"/>
     </g>
     <g id="line2d_24">
      <g>
       <use xlink:href="#m2794552b0e" x="64.58" y="37.441102" style="stroke: #000000; stroke-width: 0.8"/>
      </g>
     </g>
     <g id="text_13">
      <!-- 120 -->
      <g transform="translate(27.04 43.519852) scale(0.16 -0.16)">
       <use xlink:href="#DejaVuSans-31"/>
       <use xlink:href="#DejaVuSans-32" x="63.623047"/>
       <use xlink:href="#DejaVuSans-30" x="127.246094"/>
      </g>
     </g>
    </g>
    <g id="text_14">
     <!-- Partial KL divergence $D'$ -->
     <g transform="translate(19.68 241.8) rotate(-90) scale(0.16 -0.16)">
      <defs>
       <path id="DejaVuSans-50" d="M 1259 4147 
L 1259 2394 
L 2053 2394 
Q 2494 2394 2734 2622 
Q 2975 2850 2975 3272 
Q 2975 3691 2734 3919 
Q 2494 4147 2053 4147 
L 1259 4147 
z
M 628 4666 
L 2053 4666 
Q 2838 4666 3239 4311 
Q 3641 3956 3641 3272 
Q 3641 2581 3239 2228 
Q 2838 1875 2053 1875 
L 1259 1875 
L 1259 0 
L 628 0 
L 628 4666 
z
" transform="scale(0.015625)"/>
       <path id="DejaVuSans-61" d="M 2194 1759 
Q 1497 1759 1228 1600 
Q 959 1441 959 1056 
Q 959 750 1161 570 
Q 1363 391 1709 391 
Q 2188 391 2477 730 
Q 2766 1069 2766 1631 
L 2766 1759 
L 2194 1759 
z
M 3341 1997 
L 3341 0 
L 2766 0 
L 2766 531 
Q 2569 213 2275 61 
Q 1981 -91 1556 -91 
Q 1019 -91 701 211 
Q 384 513 384 1019 
Q 384 1609 779 1909 
Q 1175 2209 1959 2209 
L 2766 2209 
L 2766 2266 
Q 2766 2663 2505 2880 
Q 2244 3097 1772 3097 
Q 1472 3097 1187 3025 
Q 903 2953 641 2809 
L 641 3341 
Q 956 3463 1253 3523 
Q 1550 3584 1831 3584 
Q 2591 3584 2966 3190 
Q 3341 2797 3341 1997 
z
" transform="scale(0.015625)"/>
       <path id="DejaVuSans-72" d="M 2631 2963 
Q 2534 3019 2420 3045 
Q 2306 3072 2169 3072 
Q 1681 3072 1420 2755 
Q 1159 2438 1159 1844 
L 1159 0 
L 581 0 
L 581 3500 
L 1159 3500 
L 1159 2956 
Q 1341 3275 1631 3429 
Q 1922 3584 2338 3584 
Q 2397 3584 2469 3576 
Q 2541 3569 2628 3553 
L 2631 2963 
z
" transform="scale(0.015625)"/>
       <path id="DejaVuSans-74" d="M 1172 4494 
L 1172 3500 
L 2356 3500 
L 2356 3053 
L 1172 3053 
L 1172 1153 
Q 1172 725 1289 603 
Q 1406 481 1766 481 
L 2356 481 
L 2356 0 
L 1766 0 
Q 1100 0 847 248 
Q 594 497 594 1153 
L 594 3053 
L 172 3053 
L 172 3500 
L 594 3500 
L 594 4494 
L 1172 4494 
z
" transform="scale(0.015625)"/>
       <path id="DejaVuSans-6c" d="M 603 4863 
L 1178 4863 
L 1178 0 
L 603 0 
L 603 4863 
z
" transform="scale(0.015625)"/>
       <path id="DejaVuSans-20" transform="scale(0.015625)"/>
       <path id="DejaVuSans-4b" d="M 628 4666 
L 1259 4666 
L 1259 2694 
L 3353 4666 
L 4166 4666 
L 1850 2491 
L 4331 0 
L 3500 0 
L 1259 2247 
L 1259 0 
L 628 0 
L 628 4666 
z
" transform="scale(0.015625)"/>
       <path id="DejaVuSans-4c" d="M 628 4666 
L 1259 4666 
L 1259 531 
L 3531 531 
L 3531 0 
L 628 0 
L 628 4666 
z
" transform="scale(0.015625)"/>
       <path id="DejaVuSans-64" d="M 2906 2969 
L 2906 4863 
L 3481 4863 
L 3481 0 
L 2906 0 
L 2906 525 
Q 2725 213 2448 61 
Q 2172 -91 1784 -91 
Q 1150 -91 751 415 
Q 353 922 353 1747 
Q 353 2572 751 3078 
Q 1150 3584 1784 3584 
Q 2172 3584 2448 3432 
Q 2725 3281 2906 2969 
z
M 947 1747 
Q 947 1113 1208 752 
Q 1469 391 1925 391 
Q 2381 391 2643 752 
Q 2906 1113 2906 1747 
Q 2906 2381 2643 2742 
Q 2381 3103 1925 3103 
Q 1469 3103 1208 2742 
Q 947 2381 947 1747 
z
" transform="scale(0.015625)"/>
       <path id="DejaVuSans-76" d="M 191 3500 
L 800 3500 
L 1894 563 
L 2988 3500 
L 3597 3500 
L 2284 0 
L 1503 0 
L 191 3500 
z
" transform="scale(0.015625)"/>
       <path id="DejaVuSans-67" d="M 2906 1791 
Q 2906 2416 2648 2759 
Q 2391 3103 1925 3103 
Q 1463 3103 1205 2759 
Q 947 2416 947 1791 
Q 947 1169 1205 825 
Q 1463 481 1925 481 
Q 2391 481 2648 825 
Q 2906 1169 2906 1791 
z
M 3481 434 
Q 3481 -459 3084 -895 
Q 2688 -1331 1869 -1331 
Q 1566 -1331 1297 -1286 
Q 1028 -1241 775 -1147 
L 775 -588 
Q 1028 -725 1275 -790 
Q 1522 -856 1778 -856 
Q 2344 -856 2625 -561 
Q 2906 -266 2906 331 
L 2906 616 
Q 2728 306 2450 153 
Q 2172 0 1784 0 
Q 1141 0 747 490 
Q 353 981 353 1791 
Q 353 2603 747 3093 
Q 1141 3584 1784 3584 
Q 2172 3584 2450 3431 
Q 2728 3278 2906 2969 
L 2906 3500 
L 3481 3500 
L 3481 434 
z
" transform="scale(0.015625)"/>
       <path id="DejaVuSans-63" d="M 3122 3366 
L 3122 2828 
Q 2878 2963 2633 3030 
Q 2388 3097 2138 3097 
Q 1578 3097 1268 2742 
Q 959 2388 959 1747 
Q 959 1106 1268 751 
Q 1578 397 2138 397 
Q 2388 397 2633 464 
Q 2878 531 3122 666 
L 3122 134 
Q 2881 22 2623 -34 
Q 2366 -91 2075 -91 
Q 1284 -91 818 406 
Q 353 903 353 1747 
Q 353 2603 823 3093 
Q 1294 3584 2113 3584 
Q 2378 3584 2631 3529 
Q 2884 3475 3122 3366 
z
" transform="scale(0.015625)"/>
       <path id="DejaVuSans-Oblique-44" d="M 1081 4666 
L 2438 4666 
Q 3519 4666 4070 4208 
Q 4622 3750 4622 2847 
Q 4622 2250 4412 1698 
Q 4203 1147 3834 769 
Q 3463 381 2891 190 
Q 2319 0 1538 0 
L 172 0 
L 1081 4666 
z
M 1613 4147 
L 909 519 
L 1734 519 
Q 2794 519 3375 1128 
Q 3956 1738 3956 2847 
Q 3956 3519 3581 3833 
Q 3206 4147 2406 4147 
L 1613 4147 
z
" transform="scale(0.015625)"/>
       <path id="Cmsy10-30" d="M 225 347 
Q 184 359 184 409 
L 966 3316 
Q 1003 3434 1093 3506 
Q 1184 3578 1300 3578 
Q 1450 3578 1564 3479 
Q 1678 3381 1678 3231 
Q 1678 3166 1644 3084 
L 488 319 
Q 466 275 428 275 
Q 394 275 320 306 
Q 247 338 225 347 
z
" transform="scale(0.015625)"/>
      </defs>
      <use xlink:href="#DejaVuSans-50" transform="translate(0 0.584375)"/>
      <use xlink:href="#DejaVuSans-61" transform="translate(60.302734 0.584375)"/>
      <use xlink:href="#DejaVuSans-72" transform="translate(121.582031 0.584375)"/>
      <use xlink:href="#DejaVuSans-74" transform="translate(162.695312 0.584375)"/>
      <use xlink:href="#DejaVuSans-69" transform="translate(201.904297 0.584375)"/>
      <use xlink:href="#DejaVuSans-61" transform="translate(229.6875 0.584375)"/>
      <use xlink:href="#DejaVuSans-6c" transform="translate(290.966797 0.584375)"/>
      <use xlink:href="#DejaVuSans-20" transform="translate(318.75 0.584375)"/>
      <use xlink:href="#DejaVuSans-4b" transform="translate(350.537109 0.584375)"/>
      <use xlink:href="#DejaVuSans-4c" transform="translate(416.113281 0.584375)"/>
      <use xlink:href="#DejaVuSans-20" transform="translate(471.826172 0.584375)"/>
      <use xlink:href="#DejaVuSans-64" transform="translate(503.613281 0.584375)"/>
      <use xlink:href="#DejaVuSans-69" transform="translate(567.089844 0.584375)"/>
      <use xlink:href="#DejaVuSans-76" transform="translate(594.873047 0.584375)"/>
      <use xlink:href="#DejaVuSans-65" transform="translate(654.052734 0.584375)"/>
      <use xlink:href="#DejaVuSans-72" transform="translate(715.576172 0.584375)"/>
      <use xlink:href="#DejaVuSans-67" transform="translate(756.689453 0.584375)"/>
      <use xlink:href="#DejaVuSans-65" transform="translate(820.166016 0.584375)"/>
      <use xlink:href="#DejaVuSans-6e" transform="translate(881.689453 0.584375)"/>
      <use xlink:href="#DejaVuSans-63" transform="translate(945.068359 0.584375)"/>
      <use xlink:href="#DejaVuSans-65" transform="translate(1000.048828 0.584375)"/>
      <use xlink:href="#DejaVuSans-20" transform="translate(1061.572266 0.584375)"/>
      <use xlink:href="#DejaVuSans-Oblique-44" transform="translate(1093.359375 0.584375)"/>
      <use xlink:href="#Cmsy10-30" transform="translate(1177.378099 38.865625) scale(0.7)"/>
     </g>
    </g>
   </g>
   <g id="line2d_25">
    <defs>
     <path id="m9c85af4649" d="M 0 3 
C 0.795609 3 1.55874 2.683901 2.12132 2.12132 
C 2.683901 1.55874 3 0.795609 3 0 
C 3 -0.795609 2.683901 -1.55874 2.12132 -2.12132 
C 1.55874 -2.683901 0.795609 -3 0 -3 
C -0.795609 -3 -1.55874 -2.683901 -2.12132 -2.12132 
C -2.683901 -1.55874 -3 -0.795609 -3 0 
C -3 0.795609 -2.683901 1.55874 -2.12132 2.12132 
C -1.55874 2.683901 -0.795609 3 0 3 
z
" style="stroke: #0000ff"/>
    </defs>
    <g clip-path="url(#pf7811f6a78)">
     <use xlink:href="#m9c85af4649" x="82.334545" y="271.683644" style="fill: #0000ff; stroke: #0000ff"/>
     <use xlink:href="#m9c85af4649" x="101.023541" y="261.674124" style="fill: #0000ff; stroke: #0000ff"/>
     <use xlink:href="#m9c85af4649" x="119.712536" y="251.106993" style="fill: #0000ff; stroke: #0000ff"/>
     <use xlink:href="#m9c85af4649" x="138.401531" y="240.92809" style="fill: #0000ff; stroke: #0000ff"/>
     <use xlink:href="#m9c85af4649" x="157.090526" y="229.74432" style="fill: #0000ff; stroke: #0000ff"/>
     <use xlink:href="#m9c85af4649" x="175.779522" y="219.263303" style="fill: #0000ff; stroke: #0000ff"/>
     <use xlink:href="#m9c85af4649" x="194.468517" y="207.396692" style="fill: #0000ff; stroke: #0000ff"/>
     <use xlink:href="#m9c85af4649" x="213.157512" y="195.65657" style="fill: #0000ff; stroke: #0000ff"/>
     <use xlink:href="#m9c85af4649" x="231.846507" y="184.442227" style="fill: #0000ff; stroke: #0000ff"/>
     <use xlink:href="#m9c85af4649" x="250.535502" y="171.382311" style="fill: #0000ff; stroke: #0000ff"/>
     <use xlink:href="#m9c85af4649" x="269.224498" y="159.472589" style="fill: #0000ff; stroke: #0000ff"/>
     <use xlink:href="#m9c85af4649" x="287.913493" y="145.261364" style="fill: #0000ff; stroke: #0000ff"/>
     <use xlink:href="#m9c85af4649" x="306.602488" y="133.465871" style="fill: #0000ff; stroke: #0000ff"/>
     <use xlink:href="#m9c85af4649" x="325.291483" y="118.896062" style="fill: #0000ff; stroke: #0000ff"/>
     <use xlink:href="#m9c85af4649" x="343.980478" y="102.993382" style="fill: #0000ff; stroke: #0000ff"/>
     <use xlink:href="#m9c85af4649" x="362.669474" y="87.918254" style="fill: #0000ff; stroke: #0000ff"/>
     <use xlink:href="#m9c85af4649" x="381.358469" y="72.49834" style="fill: #0000ff; stroke: #0000ff"/>
     <use xlink:href="#m9c85af4649" x="400.047464" y="58.600428" style="fill: #0000ff; stroke: #0000ff"/>
     <use xlink:href="#m9c85af4649" x="418.736459" y="44.687628" style="fill: #0000ff; stroke: #0000ff"/>
     <use xlink:href="#m9c85af4649" x="437.425455" y="19.8" style="fill: #0000ff; stroke: #0000ff"/>
    </g>
   </g>
   <g id="line2d_26">
    <defs>
     <path id="m6ecb19130e" d="M -3 3 
L 3 3 
L 3 -3 
L -3 -3 
z
" style="stroke: #ff0000; stroke-linejoin: miter"/>
    </defs>
    <g clip-path="url(#pf7811f6a78)">
     <use xlink:href="#m6ecb19130e" x="82.334545" y="271.8" style="fill: #ff0000; stroke: #ff0000; stroke-linejoin: miter"/>
     <use xlink:href="#m6ecb19130e" x="101.023541" y="261.935932" style="fill: #ff0000; stroke: #ff0000; stroke-linejoin: miter"/>
     <use xlink:href="#m6ecb19130e" x="119.712536" y="252.071864" style="fill: #ff0000; stroke: #ff0000; stroke-linejoin: miter"/>
     <use xlink:href="#m6ecb19130e" x="138.401531" y="242.207795" style="fill: #ff0000; stroke: #ff0000; stroke-linejoin: miter"/>
     <use xlink:href="#m6ecb19130e" x="157.090526" y="232.343727" style="fill: #ff0000; stroke: #ff0000; stroke-linejoin: miter"/>
     <use xlink:href="#m6ecb19130e" x="175.779522" y="222.479659" style="fill: #ff0000; stroke: #ff0000; stroke-linejoin: miter"/>
     <use xlink:href="#m6ecb19130e" x="194.468517" y="212.615591" style="fill: #ff0000; stroke: #ff0000; stroke-linejoin: miter"/>
     <use xlink:href="#m6ecb19130e" x="213.157512" y="202.751522" style="fill: #ff0000; stroke: #ff0000; stroke-linejoin: miter"/>
     <use xlink:href="#m6ecb19130e" x="231.846507" y="192.887454" style="fill: #ff0000; stroke: #ff0000; stroke-linejoin: miter"/>
     <use xlink:href="#m6ecb19130e" x="250.535502" y="183.023386" style="fill: #ff0000; stroke: #ff0000; stroke-linejoin: miter"/>
     <use xlink:href="#m6ecb19130e" x="269.224498" y="173.159318" style="fill: #ff0000; stroke: #ff0000; stroke-linejoin: miter"/>
     <use xlink:href="#m6ecb19130e" x="287.913493" y="163.295249" style="fill: #ff0000; stroke: #ff0000; stroke-linejoin: miter"/>
     <use xlink:href="#m6ecb19130e" x="306.602488" y="153.431181" style="fill: #ff0000; stroke: #ff0000; stroke-linejoin: miter"/>
     <use xlink:href="#m6ecb19130e" x="325.291483" y="143.567113" style="fill: #ff0000; stroke: #ff0000; stroke-linejoin: miter"/>
     <use xlink:href="#m6ecb19130e" x="343.980478" y="133.703045" style="fill: #ff0000; stroke: #ff0000; stroke-linejoin: miter"/>
     <use xlink:href="#m6ecb19130e" x="362.669474" y="123.838976" style="fill: #ff0000; stroke: #ff0000; stroke-linejoin: miter"/>
     <use xlink:href="#m6ecb19130e" x="381.358469" y="113.974908" style="fill: #ff0000; stroke: #ff0000; stroke-linejoin: miter"/>
     <use xlink:href="#m6ecb19130e" x="400.047464" y="104.11084" style="fill: #ff0000; stroke: #ff0000; stroke-linejoin: miter"/>
     <use xlink:href="#m6ecb19130e" x="418.736459" y="94.246772" style="fill: #ff0000; stroke: #ff0000; stroke-linejoin: miter"/>
     <use xlink:href="#m6ecb19130e" x="437.425455" y="84.382703" style="fill: #ff0000; stroke: #ff0000; stroke-linejoin: miter"/>
    </g>
   </g>
   <g id="line2d_27">
    <defs>
     <path id="mdd2e39d150" d="M 0 1.5 
C 0.397805 1.5 0.77937 1.341951 1.06066 1.06066 
C 1.341951 0.77937 1.5 0.397805 1.5 0 
C 1.5 -0.397805 1.341951 -0.77937 1.06066 -1.06066 
C 0.77937 -1.341951 0.397805 -1.5 0 -1.5 
C -0.397805 -1.5 -0.77937 -1.341951 -1.06066 -1.06066 
C -1.341951 -0.77937 -1.5 -0.397805 -1.5 0 
C -1.5 0.397805 -1.341951 0.77937 -1.06066 1.06066 
C -0.77937 1.341951 -0.397805 1.5 0 1.5 
z
" style="stroke: #000000"/>
    </defs>
    <g clip-path="url(#pf7811f6a78)">
     <use xlink:href="#mdd2e39d150" x="82.334545" y="271.772685" style="stroke: #000000"/>
     <use xlink:href="#mdd2e39d150" x="101.023541" y="261.828124" style="stroke: #000000"/>
     <use xlink:href="#mdd2e39d150" x="119.712536" y="251.749723" style="stroke: #000000"/>
     <use xlink:href="#mdd2e39d150" x="138.401531" y="241.851695" style="stroke: #000000"/>
     <use xlink:href="#mdd2e39d150" x="157.090526" y="231.910025" style="stroke: #000000"/>
     <use xlink:href="#mdd2e39d150" x="175.779522" y="222.079134" style="stroke: #000000"/>
     <use xlink:href="#mdd2e39d150" x="194.468517" y="212.188145" style="stroke: #000000"/>
     <use xlink:href="#mdd2e39d150" x="213.157512" y="202.069048" style="stroke: #000000"/>
     <use xlink:href="#mdd2e39d150" x="231.846507" y="192.289379" style="stroke: #000000"/>
     <use xlink:href="#mdd2e39d150" x="250.535502" y="181.9061" style="stroke: #000000"/>
     <use xlink:href="#mdd2e39d150" x="269.224498" y="172.124506" style="stroke: #000000"/>
     <use xlink:href="#mdd2e39d150" x="287.913493" y="161.753146" style="stroke: #000000"/>
     <use xlink:href="#mdd2e39d150" x="306.602488" y="152.315368" style="stroke: #000000"/>
     <use xlink:href="#mdd2e39d150" x="325.291483" y="142.451685" style="stroke: #000000"/>
     <use xlink:href="#mdd2e39d150" x="343.980478" y="131.901159" style="stroke: #000000"/>
     <use xlink:href="#mdd2e39d150" x="362.669474" y="121.934417" style="stroke: #000000"/>
     <use xlink:href="#mdd2e39d150" x="381.358469" y="112.198432" style="stroke: #000000"/>
     <use xlink:href="#mdd2e39d150" x="400.047464" y="102.071126" style="stroke: #000000"/>
     <use xlink:href="#mdd2e39d150" x="418.736459" y="83.749097" style="stroke: #000000"/>
     <use xlink:href="#mdd2e39d150" x="437.425455" y="82.108958" style="stroke: #000000"/>
    </g>
   </g>
   <g id="patch_3">
    <path d="M 64.58 284.4 
L 64.58 7.2 
" style="fill: none; stroke: #000000; stroke-width: 0.8; stroke-linejoin: miter; stroke-linecap: square"/>
   </g>
   <g id="patch_4">
    <path d="M 455.18 284.4 
L 455.18 7.2 
" style="fill: none; stroke: #000000; stroke-width: 0.8; stroke-linejoin: miter; stroke-linecap: square"/>
   </g>
   <g id="patch_5">
    <path d="M 64.58 284.4 
L 455.18 284.4 
" style="fill: none; stroke: #000000; stroke-width: 0.8; stroke-linejoin: miter; stroke-linecap: square"/>
   </g>
   <g id="patch_6">
    <path d="M 64.58 7.2 
L 455.18 7.2 
" style="fill: none; stroke: #000000; stroke-width: 0.8; stroke-linejoin: miter; stroke-linecap: square"/>
   </g>
   <g id="legend_1">
    <g id="patch_7">
     <path d="M 75.78 99.84 
L 178.02 99.84 
Q 181.22 99.84 181.22 96.64 
L 181.22 18.4 
Q 181.22 15.2 178.02 15.2 
L 75.78 15.2 
Q 72.58 15.2 72.58 18.4 
L 72.58 96.64 
Q 72.58 99.84 75.78 99.84 
z
" style="fill: #ffffff; opacity: 0.8; stroke: #cccccc; stroke-linejoin: miter"/>
    </g>
    <g id="line2d_28">
     <g>
      <use xlink:href="#m9c85af4649" x="94.98" y="31.0725" style="fill: #0000ff; stroke: #0000ff"/>
     </g>
    </g>
    <g id="text_15">
     <!-- $D'(\widehat{\mathbf{\Sigma}}^*)$ -->
     <g transform="translate(123.78 36.6725) scale(0.16 -0.16)">
      <defs>
       <path id="DejaVuSans-28" d="M 1984 4856 
Q 1566 4138 1362 3434 
Q 1159 2731 1159 2009 
Q 1159 1288 1364 580 
Q 1569 -128 1984 -844 
L 1484 -844 
Q 1016 -109 783 600 
Q 550 1309 550 2009 
Q 550 2706 781 3412 
Q 1013 4119 1484 4856 
L 1984 4856 
z
" transform="scale(0.015625)"/>
       <path id="STIXSizeTwoSym-Regular-302" d="M -1094 3610 
L -1728 3610 
L -4224 4538 
L -6726 3610 
L -7360 3610 
L -4378 4973 
L -4070 4973 
L -1094 3610 
z
" transform="scale(0.015625)"/>
       <path id="DejaVuSans-Bold-3a3" d="M 1684 909 
L 3903 909 
L 3903 0 
L 588 0 
L 588 1003 
L 2075 2481 
L 588 3703 
L 588 4666 
L 3834 4666 
L 3834 3756 
L 1738 3756 
L 3278 2494 
L 1684 909 
z
" transform="scale(0.015625)"/>
       <path id="DejaVuSans-2a" d="M 3009 3897 
L 1888 3291 
L 3009 2681 
L 2828 2375 
L 1778 3009 
L 1778 1831 
L 1422 1831 
L 1422 3009 
L 372 2375 
L 191 2681 
L 1313 3291 
L 191 3897 
L 372 4206 
L 1422 3572 
L 1422 4750 
L 1778 4750 
L 1778 3572 
L 2828 4206 
L 3009 3897 
z
" transform="scale(0.015625)"/>
       <path id="DejaVuSans-29" d="M 513 4856 
L 1013 4856 
Q 1481 4119 1714 3412 
Q 1947 2706 1947 2009 
Q 1947 1309 1714 600 
Q 1481 -109 1013 -844 
L 513 -844 
Q 928 -128 1133 580 
Q 1338 1288 1338 2009 
Q 1338 2731 1133 3434 
Q 928 4138 513 4856 
z
" transform="scale(0.015625)"/>
      </defs>
      <use xlink:href="#DejaVuSans-Oblique-44" transform="translate(0 0.734375)"/>
      <use xlink:href="#Cmsy10-30" transform="translate(84.018724 39.015625) scale(0.7)"/>
      <use xlink:href="#DejaVuSans-28" transform="translate(105.996263 0.734375)"/>
      <use xlink:href="#STIXSizeTwoSym-Regular-302" transform="translate(233.321947 46.796875) scale(0.697714)"/>
      <use xlink:href="#DejaVuSans-Bold-3a3" transform="translate(145.009935 0.734375)"/>
      <use xlink:href="#DejaVuSans-2a" transform="translate(227.915208 39.015625) scale(0.7)"/>
      <use xlink:href="#DejaVuSans-29" transform="translate(279.287279 0.734375)"/>
     </g>
    </g>
    <g id="line2d_29">
     <g>
      <use xlink:href="#m6ecb19130e" x="94.98" y="55.8725" style="fill: #ff0000; stroke: #ff0000; stroke-linejoin: miter"/>
     </g>
    </g>
    <g id="text_16">
     <!-- $D'(\mathbf{\Sigma}^*)$ -->
     <g transform="translate(123.78 61.4725) scale(0.16 -0.16)">
      <use xlink:href="#DejaVuSans-Oblique-44" transform="translate(0 0.765625)"/>
      <use xlink:href="#Cmsy10-30" transform="translate(84.018724 39.046875) scale(0.7)"/>
      <use xlink:href="#DejaVuSans-28" transform="translate(105.996263 0.765625)"/>
      <use xlink:href="#DejaVuSans-Bold-3a3" transform="translate(145.009935 0.765625)"/>
      <use xlink:href="#DejaVuSans-2a" transform="translate(227.915208 39.046875) scale(0.7)"/>
      <use xlink:href="#DejaVuSans-29" transform="translate(279.287279 0.765625)"/>
     </g>
    </g>
    <g id="line2d_30">
     <g>
      <use xlink:href="#mdd2e39d150" x="94.98" y="83.36" style="stroke: #000000"/>
     </g>
    </g>
    <g id="text_17">
     <!-- $D'(\widehat{\mathbf{\Sigma}}^*_k)$ -->
     <g transform="translate(123.78 88.96) scale(0.16 -0.16)">
      <defs>
       <path id="DejaVuSans-Oblique-6b" d="M 1172 4863 
L 1747 4863 
L 1197 2028 
L 3169 3500 
L 3916 3500 
L 1716 1825 
L 3322 0 
L 2625 0 
L 1131 1709 
L 800 0 
L 225 0 
L 1172 4863 
z
" transform="scale(0.015625)"/>
      </defs>
      <use xlink:href="#DejaVuSans-Oblique-44" transform="translate(0 0.734375)"/>
      <use xlink:href="#Cmsy10-30" transform="translate(84.018724 39.015625) scale(0.7)"/>
      <use xlink:href="#DejaVuSans-28" transform="translate(105.996263 0.734375)"/>
      <use xlink:href="#STIXSizeTwoSym-Regular-302" transform="translate(233.321947 46.796875) scale(0.697714)"/>
      <use xlink:href="#DejaVuSans-Bold-3a3" transform="translate(145.009935 0.734375)"/>
      <use xlink:href="#DejaVuSans-2a" transform="translate(227.915208 39.079688) scale(0.7)"/>
      <use xlink:href="#DejaVuSans-Oblique-6b" transform="translate(214.277513 -26.609375) scale(0.7)"/>
      <use xlink:href="#DejaVuSans-29" transform="translate(279.287279 0.734375)"/>
     </g>
    </g>
   </g>
  </g>
 </g>
 <defs>
  <clipPath id="pf7811f6a78">
   <rect x="64.58" y="7.2" width="390.6" height="277.2"/>
  </clipPath>
 </defs>
</svg>
